<?xml version="1.0" standalone="no"?>
<!DOCTYPE svg PUBLIC "-//W3C//DTD SVG 1.1//EN" "http://www.w3.org/Graphics/SVG/1.1/DTD/svg11.dtd" >
<!--
2013-9-30: Created.
-->
<svg>
<metadata>
Created by iconfont
</metadata>
<defs>

<font id="iconfont" horiz-adv-x="1024" >
  <font-face
    font-family="iconfont"
    font-weight="500"
    font-stretch="normal"
    units-per-em="1024"
    ascent="896"
    descent="-128"
  />
    <missing-glyph />
    
    <glyph glyph-name="shenfenzheng" unicode="&#59090;" d="M729.668485 297.59523c-90.809215 0-164.423817-72.948429-164.423817-162.947186s73.615625-162.947186 164.423817-162.947186c90.806145 0 164.420747 72.948429 164.420747 162.947186C894.089232 224.647825 820.47463 297.59523 729.668485 297.59523zM727.592196 28.886279c-8.570189-8.388041-22.460548-8.388041-31.029714 0l-69.788459 68.356854c-8.547677 8.389064-8.547677 21.99392 0 30.382984 8.569166 8.387018 22.457478 8.387018 31.008224 0l54.284347-53.163827 104.70776 102.524025c8.547677 8.389064 22.460548 8.389064 31.008224 0 8.568143-8.385994 8.568143-21.980617 0-30.369681L727.592196 28.886279zM767.331269 494.447621 549.163411 494.447621c-9.057283 0-16.401552-7.342222-16.401552-16.401552 0-9.058306 7.344269-16.400528 16.401552-16.400528l218.167858 0c9.05933 0 16.401552 7.342222 16.401552 16.400528C783.731798 487.105399 776.389576 494.447621 767.331269 494.447621zM767.331269 412.88193 549.163411 412.88193c-9.057283 0-16.401552-7.343245-16.401552-16.400528 0-9.05933 7.344269-16.402575 16.401552-16.402575l218.167858 0c9.05933 0 16.401552 7.343245 16.401552 16.402575C783.731798 405.538685 776.389576 412.88193 767.331269 412.88193zM624.388696 314.914688c0 9.058306-7.342222 16.399505-16.401552 16.399505l-58.824757 0c-9.057283 0-16.401552-7.341199-16.401552-16.399505 0-9.05933 7.344269-16.401552 16.401552-16.401552l58.824757 0C617.046474 298.513136 624.388696 305.856381 624.388696 314.914688zM330.638419 289.822197c-3.021823-3.316535-7.446599-6.794753-13.270235-10.384511-7.468089-4.691859-16.064884-8.30413-25.726941-10.787694-9.701966-2.50096-19.048845-5.348821-28.031427-8.505721-9.004071-3.184529-16.879436-7.495718-23.648606-12.865006-6.794753-5.415336-10.879792-13.226233-12.280698-23.473621-2.75474-17.98563-3.384074-32.654724-1.851161-44.00626 1.514493-11.33107 3.656273-18.120706 6.433526-20.336164 1.648546-1.399883 5.664-2.775206 12.029988-4.152577 6.363941-1.396813 14.126742-2.77623 23.2444-4.149507 9.16166-1.376347 19.321044-2.688225 30.514991-3.954055 11.216459-1.238201 22.500457-2.344395 33.850969-3.315512 11.329023-0.948605 22.345937-1.736551 32.998555-2.279926 10.651594-0.562818 19.99438-0.835018 28.030403-0.835018 8.035 0 17.510816 0.272199 28.433586 0.835018 10.923794 0.542352 22.345937 1.331321 34.262338 2.279926 11.892865 0.971118 23.719214 2.14485 35.474956 3.545756 6.624884 0.773619 12.884448 1.617847 18.808368 2.524496L509.911432 266.012931c-2.101871 0.624217-4.216022 1.225921-6.350638 1.803066-8.16803 2.213411-15.706727 4.718465-22.635533 7.470135-7.739265 3.046383-13.744026 6.525624-18.032702 10.383488-4.308119 3.883447-7.491625 7.966439-9.565866 12.231579-2.077312 4.313236-3.252067 8.597819-3.521197 12.886495-0.294712 4.2897 0 8.509814 0.833995 12.663414 1.105171 6.928806 3.316535 11.827373 6.636141 14.735609 3.315512 2.911306 7.627724 6.432503 12.862959 10.585079 2.211365 1.941212 4.220115 4.649903 6.028297 8.079002 1.804089 3.476171 3.38305 6.996344 4.76042 10.606569 1.400906 4.152577 2.799766 8.577353 4.176113 13.270235 2.75474 0.835018 5.371334 2.346441 7.877411 4.582365 2.211365 1.916653 4.219091 4.625344 6.02625 8.100492 1.803066 3.431146 2.956332 8.082072 3.520173 13.902638 0.565888 4.424776 0.497327 8.148587-0.200568 11.192923-0.701988 3.046383-1.603521 5.552459-2.708692 7.493671-1.107217 2.211365-2.620687 3.994987-4.559852 5.372358 0 11.352559-0.677429 22.569018-2.075265 33.626865-1.399883 9.704013-3.726881 19.86135-7.043417 30.513968-3.338025 10.652618-8.596795 20.424168-15.797801 29.271674-3.021823 3.882424-7.243985 7.741311-12.661368 11.622712-5.392824 3.883447-11.556197 7.358595-18.458397 10.381441-6.931876 3.070942-14.33652 5.461385-22.231327 7.267521-7.876388 1.806135-15.821337 2.710738-23.855314 2.710738-6.364965 0-12.957103-0.497327-19.72525-1.445932-6.770194-0.99363-13.5629-2.843768-20.333094-5.618974-6.795776-2.77623-13.429871-6.567579-19.931958-11.42112-6.497994-4.830005-12.389168-11.125385-17.647939-18.889209-5.821589-8.032954-10.155291-17.149589-13.08911-27.396977-2.888793-10.246365-4.898567-19.769252-6.004761-28.640294-1.39579-10.514471-1.939165-21.033036-1.667989-31.549553-2.481518-2.77623-4.28663-5.665023-5.3918-8.732895-1.108241-2.75474-1.874697-6.072299-2.28095-9.953699-0.405229-3.858888 0.204661-8.146541 1.874697-12.862959 1.375324-4.719488 3.045359-8.306176 4.986571-10.812253 1.941212-2.482541 3.721765-4.422729 5.370311-5.799076 1.942235-1.376347 3.8814-2.347464 5.822612-2.912329 1.399883-4.692882 2.774183-9.117658 4.152577-13.270235 1.401929-3.610224 2.912329-7.131421 4.558829-10.606569 1.670036-3.429099 3.611248-6.138814 5.823636-8.079002 4.692882-3.883447 8.981559-7.674796 12.861936-11.420097 3.883447-3.723811 6.095835-8.777921 6.635117-15.143908 0.295735-4.444219 0.429789-8.44023 0.429789-12.027941 0-3.612271-0.700965-7.063883-2.076288-10.401908C335.921749 296.456291 333.710384 293.140779 330.638419 289.822197zM194.338127 106.512241c-21.271466 2.223644-37.994336 20.37198-37.994336 42.237987l0 410.462442c0 23.354917 19.075451 40.687678 42.394552 40.687678l620.562555 0c23.319102 0 44.174082-17.333784 44.174082-40.687678l0-254.700913c10.44898-8.095375 20.122293-17.122983 28.91454-26.946722L892.38952 573.726222c0 31.324426-27.972075 54.57292-59.248406 54.57292l-648.848785 0c-31.276331 0-56.863079-23.248494-56.863079-54.57292l0-438.956404c0-29.328979 22.427802-53.66934 50.958602-56.652278l341.411787 0c-2.526543 9.235338-4.457522 18.712177-5.731538 28.395724L194.338127 106.512241z"  horiz-adv-x="1024" />

    
    <glyph glyph-name="icon02" unicode="&#58882;" d="M510.352119-100.416237c-220.548741 0-399.339141 178.82643-399.339141 399.403615S289.803378 698.377719 510.352119 698.377719c220.550637 0 399.341037-178.813156 399.341037-399.390341S730.902756-100.416237 510.352119-100.416237zM510.352119 648.455822c-192.982281 0-349.421037-156.461511-349.421037-349.468444S317.369837-50.482963 510.352119-50.482963s349.421037 156.463407 349.421037 349.470341S703.3344 648.455822 510.352119 648.455822zM660.104533 274.020741 535.313067 274.020741l0-124.81043c0-13.778489-11.174874-24.957156-24.959052-24.957156-13.784178 0-24.957156 11.178667-24.957156 24.957156l0 124.81043-124.795259 0c-13.784178 0-24.959052 11.17677-24.959052 24.966637 0 13.780385 11.17677 24.957156 24.959052 24.957156l124.795259 0 0 124.816119c0 13.778489 11.174874 24.951467 24.957156 24.951467 13.786074 0 24.959052-11.171081 24.959052-24.951467l0-124.816119 124.791467 0c13.786074 0 24.959052-11.17677 24.959052-24.957156C685.063585 285.197511 673.890607 274.020741 660.104533 274.020741z"  horiz-adv-x="1024" />

    
    <glyph glyph-name="pengyouquan" unicode="&#59326;" d="M541.76 584.362667 283.946667 841.28c-9.856-4.906667-19.541333-10.048-28.970667-15.509333C217.002667 804.032 181.226667 777.173333 148.906667 744.981333c-13.973333-13.845333-26.666667-28.373333-38.506667-43.221333-29.12-36.522667-52.522667-76.096-70.165333-117.482667C40.234667 584.277333 526.208 586.837333 541.76 584.362667zM391.722667 547.84 27.093333 547.84c-3.52-10.197333-6.634667-20.714667-9.536-31.296C6.186667 474.496 0 430.314667 0 384.64c0-19.52 1.216-38.741333 3.434667-57.642667 5.248-46.378667 16.853333-90.773333 33.813333-132.416C37.248 194.581333 378.965333 538.752 391.722667 547.84zM970.24 613.568c-4.842667 9.664-10.005333 19.328-15.488 28.821333-21.888 37.717333-48.768 73.408-81.173333 105.621333-13.845333 13.781333-28.373333 26.56-43.349333 38.378667-36.672 28.992-76.330667 52.330667-117.866667 69.866667 0 0 2.581333-484.138667 0-499.562667L970.24 613.568zM676.565333 505.664 676.565333 868.928c-10.304 3.477333-20.864 6.656-31.445333 9.6C602.965333 889.792 558.592 896 512.725333 896c-19.605333 0-38.869333-1.216-57.877333-3.413333-46.485333-5.248-91.050667-16.853333-132.970667-33.642667C321.877333 858.944 667.285333 518.336 676.565333 505.664zM311.146667 413.909333 53.418667 156.992c4.778667-9.834667 10.048-19.370667 15.488-28.885333 21.781333-37.781333 48.746667-73.472 81.173333-105.706667 13.824-13.802667 28.373333-26.474667 43.349333-38.378667 36.672-29.056 76.245333-52.288 117.866667-69.802667C311.296-85.76 308.650667 398.378667 311.146667 413.909333zM479.744 181.717333l257.877333-256.917333c9.749333 4.885333 19.413333 10.048 28.992 15.509333 37.781333 21.696 73.536 48.490667 106.005333 80.832 13.781333 13.76 26.538667 28.202667 38.485333 43.157333 29.056 36.544 52.522667 75.989333 70.101333 117.461333C981.162667 181.76 495.317333 179.114667 479.744 181.717333zM1020.544 440.810667c-5.312 46.314667-16.832 90.752-33.770667 132.458667 0 0-341.781333-344.149333-354.56-353.344l364.629333 0c3.456 10.282667 6.634667 20.8 9.493333 31.338667C1017.770667 293.354667 1024 337.408 1024 383.104 1024 402.645333 1022.741333 421.888 1020.544 440.810667zM347.456 262.4l0-363.306667c10.346667-3.498667 20.864-6.656 31.424-9.493333C421.098667-121.856 465.408-128 511.274667-128c19.541333 0 38.848 1.216 57.770667 3.434667 46.549333 5.269333 91.050667 16.725333 132.906667 33.6C702.016-90.965333 356.650667 249.6 347.456 262.4z"  horiz-adv-x="1024" />

    
    <glyph glyph-name="ditu" unicode="&#59322;" d="M525.595134 303.361425c-3.965312-3.309372-8.762571-4.9088-13.606903-4.9088s-9.625218 1.599428-13.59053 4.9088c-7.355525 5.963829-180.0057 148.95552-180.0057 295.52776 0 106.727767 86.836741 193.564507 193.597253 193.564507s193.597253-86.836741 193.597253-193.564507C705.585485 452.316945 532.934287 309.325253 525.595134 303.361425L525.595134 303.361425zM511.988232 749.474832c-83.032088 0-150.618393-67.569932-150.618393-150.585647 0-104.521518 111.188358-214.654848 150.618393-250.374374 39.397289 35.767622 150.618393 146.028864 150.618393 250.374374C662.606625 681.9049 595.03567 749.474832 511.988232 749.474832L511.988232 749.474832zM908.439566 106.678904l-257.873162-128.936581c-3.069919-1.503237-6.347568-2.222621-9.641591-2.222621-3.501754 0-7.03523 0.799202-10.153244 2.526543L361.626689 123.003707 135.443273-0.384507c-6.635117-3.66139-14.693654-3.485381-21.265326 0.367367-6.507204 3.869121-10.472516 10.872628-10.472516 18.515702l0 429.788603c0 7.179516 3.549849 13.894452 9.530051 17.844413l107.495246 64.500013c9.832949 6.5553 23.168676 3.901867 29.803793-5.995551 6.53995-9.8176 3.901867-23.168676-6.011924-29.803793l-97.837282-58.089 0-382.060579 204.581422 111.604844c6.379291 3.437286 14.134929 3.437286 20.482497 0.031722l269.529643-145.133472L877.324918 139.216971 877.324918 515.569548l-74.078159-42.179658c-9.897418-6.5553-23.232121-3.901867-29.78742 5.915733-6.5553 9.897418-3.917216 23.248494 5.995551 29.803793l107.399055 64.500013c6.635117 4.365424 15.110139 4.797259 22.097274 1.055029 6.987135-3.773953 11.352559-11.032264 11.352559-18.97926l0-429.788603C920.303778 117.759263 915.6989 110.340293 908.439566 106.678904L908.439566 106.678904z"  horiz-adv-x="1024" />

    
    <glyph glyph-name="PDF" unicode="&#58972;" d="M573.307298 476.956112c-11.891841 16.957207-28.690436 25.167193-50.396807 24.63712h-51.17145v-208.297047h51.17145c24.033369 0 41.47767 8.478092 52.332902 25.435299 4.78191 6.27389 7.817036 14.21884 9.109472 23.833825 1.161453 9.481955 1.74576 27.237341 1.74576 53.27639 0 25.366737-0.584308 43.526329-1.74576 54.478776-1.548262 10.949376-5.230118 19.827581-11.045567 26.635637zM338.0052 493.35971c-8.794293 5.753027-19.012006 8.497535-30.64802 8.232498h-61.880349v-94.573958h63.431681c15.905248 0.26913 27.865651 5.355985 35.885302 15.261588 7.629771 9.637498 11.44568 20.345374 11.44568 32.125675 0 9.771551-1.552356 18.003026-4.656044 24.698518-3.235694 6.021134-7.760754 10.774391-13.57825 14.255679zM65.534576 847.585337v-891.398959h892.930848V847.585337H65.534576z m311.34398-453.323622c-15.117302-18.652825-37.21253-28.246321-66.282612-28.777417h-65.119113v-113.741508h-42.733267V543.145603h102.314247c11.107989 0 21.829168-1.068332 32.165584-3.197832 10.333346-2.797719 20.798698-8.528234 31.39094-17.185404 8.893554-6.529717 16.110933-15.855106 21.657253-27.978215 5.799076-11.726066 8.700149-25.582655 8.700149-41.568744 0.001023-21.584598-7.365758-41.234123-22.093181-58.953693z m248.662383-62.373583c-1.034563-6.264681-2.582825-11.861142-4.646833-16.788362-2.196015-4.797259-4.840238-9.79304-7.93881-14.989389-8.263198-13.725606-19.75288-25.051559-34.468022-33.976836-14.58723-9.593496-32.465412-14.389732-53.635571-14.389731h-95.846952V543.145603h98.760304c38.211277-0.26913 66.874083-16.657378 85.98228-49.166793 6.832615-10.926864 11.150968-22.384823 12.95608-34.376948 1.418302-11.992125 2.12643-32.712029 2.12643-62.157665 0.002047-31.314193-1.096984-53.163827-3.288906-65.556065z m225.228671 169.704076H713.191208v-86.179778h117.439736v-39.135322H713.191208v-124.534318h-42.733266V543.145603h180.311668v-41.553395z"  horiz-adv-x="1024" />

    
    <glyph glyph-name="weixin" unicode="&#58935;" d="M668.930145 526.619208c10.174734 0 20.221554-0.76134 30.216186-1.87879-27.148313 126.45711-162.332179 220.388433-316.649824 220.388433-172.506912 0-313.832661-117.576859-313.832661-266.89463 0-86.191034 47.015803-156.980287 125.594463-211.861222l-31.385825-94.411253 109.686145 55.007825c39.276539-7.762801 70.762647-15.731286 109.937878-15.731287 9.844206 0 19.61371 0.457418 29.30749 1.218758-6.141884 21.008476-9.69378 42.980907-9.69378 65.766866 0.001023 137.110751 117.730355 248.3953 266.819928 248.3953zM500.175697 611.692792c23.622 0 39.278585-15.552208 39.278585-39.148625 0-23.547299-15.656585-39.276539-39.278585-39.276538-23.518646 0-47.115064 15.72924-47.115064 39.276538 0 23.596418 23.596418 39.148625 47.115064 39.148625zm-219.624023-78.425163c-23.520693 0-47.26856 15.72924-47.26856 39.276538 0 23.596418 23.746844 39.148625 47.26856 39.148625 23.520693 0 39.175231-15.552208 39.175231-39.148625 0-23.547299-15.654538-39.276539-39.175231-39.276538zM955.335131 282.002978c0 125.467573-125.542274 227.742934-266.565125 227.742934-149.315724 0-266.918165-102.276385-266.918166-227.742934 0-125.69577 117.602442-227.746004 266.918166-227.746004 31.260981 0 62.797231 7.890714 94.183056 15.757892l86.064144-47.143717-23.596417 78.427211c62.999846 47.269583 109.914342 109.938901 109.914342 180.704618zm-353.085664 39.250956c-15.627932 0-31.40936 15.552208-31.409361 31.411407 0 15.627932 15.781428 31.385824 31.409361 31.385824 23.723308 0 39.278585-15.757892 39.278585-31.385824 0-15.859199-15.555278-31.411407-39.278585-31.411407zm172.610266 0c-15.528672 0-31.18321 15.552208-31.18321 31.411407 0 15.627932 15.653515 31.385824 31.18321 31.385824 23.520693 0 39.276539-15.757892 39.276539-31.385824 0-15.859199-15.755846-31.411407-39.276539-31.411407z"  horiz-adv-x="1024" />

    
    <glyph glyph-name="tianjia-yin" unicode="&#59023;" d="M512 844.8c-253.952 0-460.8-206.848-460.8-460.8s206.848-460.8 460.8-460.8S972.8 130.048 972.8 384s-206.848 460.8-460.8 460.8zM747.52 363.52h-204.8v-204.8c0-12.288-8.192-20.48-20.48-20.48s-20.48 8.192-20.48 20.48v204.8h-204.8c-12.288 0-20.48 8.192-20.48 20.48s8.192 20.48 20.48 20.48h204.8v204.8c0 12.288 8.192 20.48 20.48 20.48s20.48-8.192 20.48-20.48v-204.8h204.8c12.288 0 20.48-8.192 20.48-20.48s-8.192-20.48-20.48-20.48z"  horiz-adv-x="1024" />

    
    <glyph glyph-name="baogao" unicode="&#59104;" d="M924.759691-83.204375H188.631579c-36.896397 0-66.993458 29.997071-66.993458 66.893468v6.599355c1.799824 49.295186 15.498486 58.394297 41.895909 58.394298h722.929401c7.099307 0 16.698369 2.399766 34.396641 20.098037 17.698272 17.698272 20.098037 27.297334 20.098038 34.396641V825.506884c0 21.09794-16.498389 39.796114-23.597696 46.89542-7.099307 7.099307-25.897471 23.597696-46.995411 23.597696L436.007421 895.90001H266.323992 260.024607h-0.09999H188.731569C127.037594 895.90001 76.842496 845.804902 76.842496 784.210917v-800.521824c0-61.593985 50.095108-111.689093 111.789083-111.689093h736.128112c12.398789 0 22.397813 9.999024 22.397813 22.397813 0 12.298799-10.099014 22.397813-22.397813 22.397812zM282.322429 851.104384h131.287179v-208.679621l-38.49624 36.996387c-13.398692 12.79875-34.396641 12.79875-47.795333 0l-44.995606-43.195781V851.104384z m-93.69085 0h48.795235v-234.477102c0-12.89874 7.999219-24.297627 20.897959-29.79709 5.499463-2.299775 11.298897-3.499658 17.09833-3.499658 10.099014 0 19.998047 3.499658 26.797383 10.099014l48.795235 46.79543 48.795235-46.79543c9.999024-9.599063 24.697588-12.298799 37.396348-6.799336 12.69876 5.399473 20.997949 17.898252 20.997949 31.696904V851.104384h411.85978c7.599258-1.099893 24.897569-18.398203 25.997461-25.997461V107.976955c-3.399668-4.39957-10.398984-11.298897-14.698565-14.698564h-717.929889c-16.098428 0-30.097061-2.899717-41.895909-8.699151V784.210917c0.09999 36.896397 30.197051 66.893467 67.093448 66.893467z"  horiz-adv-x="1024" />

    
    <glyph glyph-name="bianji" unicode="&#59105;" d="M1009.9 835.9L412.5 232.5C385.2 212.8 367 228 367 228c-22.7 15.2-3 43.9-3 43.9L970.5 881.4c31.8 15.2 47-1.5 47-1.5 18.2-24.3-7.6-44-7.6-44zM963.3-126.6h-833C13.1-126.6 0-26.3 0-26.3V780.1C0 886.4 111.1 896 111.1 896h349.3l-0.4-46.5H120.6c-62.1 0-72.9-52.6-72.9-52.6v-810c0-60.9 75.3-69.3 75.3-69.3h827.9c29.8 0 28.7 43 28.7 43V339.5h43.5v-359.8c0-98-59.8-106.3-59.8-106.3z"  horiz-adv-x="1024" />

    
    <glyph glyph-name="biaoqing" unicode="&#59106;" d="M316.069134 458.842691c14.698565 0.09999 28.897178 5.999414 39.396153 16.298409 10.298994 10.298994 16.398399 24.897569 16.398398 39.496142-0.09999 14.798555-5.999414 28.897178-16.398398 39.396153-10.498975 10.398984-24.597598 16.198418-39.396153 16.398399-14.798555-0.09999-28.897178-5.999414-39.496143-16.398399-10.298994-10.498975-16.198418-24.597598-16.298408-39.396153 0-14.498584 6.099404-29.197149 16.298408-39.496142 10.398984-10.298994 24.997559-16.298408 39.496143-16.298409m391.761742 0c14.798555 0.09999 28.897178 5.899424 39.496143 16.298409 10.199004 10.298994 16.298408 24.897569 16.298408 39.496142-0.09999 14.698565-5.999414 28.897178-16.298408 39.396153-10.498975 10.398984-24.697588 16.198418-39.496143 16.398399-14.798555-0.09999-28.897178-5.999414-39.496143-16.398399-10.298994-10.498975-16.198418-24.597598-16.298408-39.396153 0-14.498584 6.099404-29.197149 16.298408-39.496142 10.298994-10.298994 24.997559-16.298408 39.496143-16.298409m55.594571-136.08671l-0.699932 0.19998-0.599941 0.299971c-4.29958 1.899814-9.199102 1.899814-13.398692 0-5.999414-2.699736-10.598965-7.799238-12.498779-14.198613-8.49917-23.797676-19.798067-46.495459-33.69671-67.493409-39.196172-58.994239-112.389025-95.690655-190.681378-95.690655-75.592618 0-143.585978 35.096573-196.780783 101.590079l-0.399961 0.699931-0.499952 0.699932c-12.89874 19.398106-26.297432 39.596133-33.196758 66.493506-4.699541 8.899131-13.098721 18.298213-26.597402 14.198614-8.799141-4.799531-18.698174-18.998145-14.498584-33.296749 3.299678-6.499365 6.499365-13.198711 9.799043-20.198027 10.199004-21.39791 20.697979-43.595743 34.796602-62.393907l0.09999-0.09999c50.195098-68.993262 139.386388-113.588907 227.377795-113.588907 88.891319 0 177.382677 45.495557 220.278488 113.088956l0.399961 0.699931c18.598184 24.697588 37.796309 50.295088 43.995704 80.992091l0.299971 1.199883 0.499951 1.099892c1.899814 4.29958 1.899814 9.299092 0 13.598672-2.499756 5.699443-7.699248 10.199004-13.998633 12.098819M511.950005 896C234.477102 896 0 661.522898 0 384.049995c0-277.572893 234.477102-512.049995 511.950005-512.049995 277.572893 0 511.950005 234.477102 511.950005 511.950005C1023.90001 661.522898 789.522898 895.90001 511.950005 896z m326.568108-838.518113C752.02656-29.309638 634.438043-77.904892 511.950005-77.504931c-122.488038-0.399961-240.076555 48.195293-326.568109 134.986818C98.590372 143.87345 49.995118 261.461967 50.495069 383.950005c0 123.687921 47.995313 239.576604 134.986818 326.568108C271.87345 797.409628 389.461967 846.004882 511.950005 845.504931c123.687921 0 239.576604-47.995313 326.568108-134.986818 86.791524-86.491554 135.386779-204.08007 134.986818-326.568108 0.399961-122.488038-48.195293-240.076555-134.986818-326.468118z"  horiz-adv-x="1024" />

    
    <glyph glyph-name="chejianzuoye" unicode="&#59108;" d="M1024-51.6c0-5.7-1.4-7.8-7.8-7.8H7.8c-6.4 0-7.8 1.4-7.8 7.8V818.9c0 7.1 2.1 8.5 8.5 8.5h144.3c4.2 0 8.5-0.7 12.7-2.8C343 738.3 520.5 652 696.6 565.7c2.1-0.7 4.2-2.1 7.8-3.5V820.3h182.4v-338.7c0-6.4 1.4-9.2 7.1-12 41-19.1 82-39.6 123-59.4 5-2.1 6.4-5 6.4-10.6 0-150 0-300.6 0.7-451.2z m-46.2 38.2c-0.5 131-0.5 263.1-0.5 391.7-7.2 3.5-14.5 7-21.5 10.5-26.7 13-54.3 26.5-81.3 39.1l-0.6 0.3-0.6 0.3c-12.1 6.1-32.5 21-32.5 53.2V774.3h-90.5v-280.1l-63.1 25.2c-3.1 1.3-5.6 2.5-7.3 3.3l-0.9 0.3-2.8 1.4c-174.8 85.6-353.9 172.7-527.3 257H46v-794.8h931.8zM150.8 492.2h46v-430h-46zM312 392.2h46v-330h-46zM473.3 292.2h46v-230h-46z"  horiz-adv-x="1024" />

    
    <glyph glyph-name="dashang" unicode="&#59109;" d="M323.6 807.9c0.5-1 1-1.5 1.5-2L394.2 702h235.5l69.6 103.9 0.5 0.5 9.7 14.8-2 4.6c0.5 2 1 5.1 1 7.7 0 15.4-7.7 29.2-19.5 35.8l-1 3.1-2.6 0.5c-1 0-90.6 23-171.5 23h-2c-77.8-0.5-172.5-23-173.6-23l-2.6-0.5-1-3.1c-11.8-6.7-19.5-20.5-19.5-35.8 0-3.1 0.5-5.6 1-8.2l-1.5-4.1c0.2 0 8.9-13.3 8.9-13.3z m95.2-60.9l-56.3 84.5c0 0.5-0.5 0.5-0.5 1 29.2 6.1 94.7 18.9 150.5 18.9h2c57.9 0 120.8-12.8 148-18.9l-56.8-85H418.8v-0.5zM383 238.1c-12.3 0-22.5-10.2-22.5-22.5S370.7 193 383 193h106.5v-74.2c0-12.3 10.2-22.5 22.5-22.5s22.5 10.2 22.5 22.5V193H641c12.3 0 22.5 10.2 22.5 22.5S653.3 238 641 238H534.5v65.5H641c12.3 0 22.5 10.2 22.5 22.5s-10.2 22.5-22.5 22.5H534.5v12.8l102.9 102.9c4.1 4.1 6.7 9.7 6.7 15.9s-2.6 11.8-6.7 15.9c-8.7 8.7-23 8.7-31.7 0L512 402.4l-93.7 93.7c-8.7 8.7-23 8.7-31.7 0s-8.7-23 0-31.7L490 361.5v-12.3H383c-12.3 0-22.5-10.2-22.5-22.5s10.2-22.5 22.5-22.5h106.5v-65.5H383v-0.6zM867.8 503.8c-63.5 86-148 151-237.6 182.3l-1 0.5H394.8l-1-0.5c-90.1-31.2-174.6-95.7-237.6-182.3-64-87-99.3-186.4-99.3-280.6 0-120.8 35.3-206.8 108-264.2 74.2-58.4 187.9-87 347.1-87s272.9 28.2 347.1 87c72.7 57.3 108 143.9 108 264.2 0.1 94.2-35.3 193.6-99.3 280.6zM621.6 641c38.4-14.3 76.3-35.3 111.6-63 36.9-28.7 70.1-62.5 98.3-101.4 58.4-79.4 90.6-169.5 90.6-253.4 0-53.2-7.7-99.8-23-137.2-14.8-37.4-37.4-67.1-68.1-91.6-31.7-25.1-73.7-44-124.9-56.8-53.2-13.3-118.8-20-194-20s-140.8 6.7-194.6 20c-50.7 12.8-92.7 31.7-124.9 56.8-30.7 24.1-52.7 54.3-68.1 91.6-15.4 37.9-23 84-23 137.2 0 84 32.3 174.1 90.6 253.4 28.2 38.4 61.4 72.7 98.3 101.4 35.3 27.6 73.2 48.6 111.6 63h219.6z"  horiz-adv-x="1024" />

    
    <glyph glyph-name="dingdan" unicode="&#59110;" d="M287.7 421.8H737v-50.6H287.7v50.6zM287.7 197.5h274.9v-50.6H287.7v50.6zM835.9-128H188.1c-13.5 0-26.5 2.6-38.8 7.8-11.9 5-22.5 12.2-31.7 21.4-9.1 9.1-16.3 19.8-21.4 31.7-5.2 12.3-7.8 25.4-7.8 38.8V646c0 13.5 2.6 26.5 7.8 38.8 5 11.9 12.2 22.5 21.4 31.7 9.1 9.1 19.8 16.3 31.7 21.4 12.3 5.2 25.4 7.8 38.8 7.8h98.2v-49.9h-98.2c-27.5 0-49.8-22.3-49.8-49.8v-674.3c0-27.5 22.3-49.8 49.8-49.8h647.8c27.5 0 49.8 22.3 49.8 49.8V646c0 27.5-22.3 49.8-49.8 49.8h-97.8v49.9h97.8c13.5 0 26.5-2.6 38.8-7.8 11.9-5 22.5-12.2 31.7-21.4 9.1-9.1 16.3-19.8 21.4-31.7 5.2-12.3 7.8-25.4 7.8-38.8v-674.3c0-13.4-2.6-26.5-7.8-38.8-5-11.9-12.2-22.5-21.4-31.7-9.1-9.1-19.8-16.3-31.7-21.4-12.3-5.2-25.3-7.8-38.8-7.8zM761.2 596.1H262.8v162c0 34.4 28 62.3 62.3 62.3h64.4C412.5 866.3 459.7 896 512 896s99.5-29.7 122.5-75.5h64.4c34.4 0 62.3-28 62.3-62.3v-162.1z m-448.5 50h398.6v112c0 6.8-5.6 12.4-12.4 12.4h-98.6l-5.8 16.8C582.4 822.4 549.3 846 512.1 846s-70.3-23.6-82.4-58.7l-5.8-16.8h-98.6c-6.8 0-12.4-5.6-12.4-12.4l-0.2-112z"  horiz-adv-x="1024" />

    
    <glyph glyph-name="erweima" unicode="&#59111;" d="M425.7 896H51.3C25.5 896 4.5 875 4.5 849.2v-374.5c0-25.8 21-46.8 46.8-46.8h374.5c25.8 0 46.8 21 46.8 46.8V849.2c0 25.8-21 46.8-46.9 46.8z m6.1-421.4c0-3.4-2.7-6-6-6H51.3c-3.4 0-6 2.7-6 6V849.2c0 3.4 2.7 6 6 6h374.5c3.4 0 6-2.7 6-6v-374.6zM303.7 756.5H173.4c-16.3 0-29.6-13.3-29.6-29.6v-130.2c0-16.3 13.3-29.6 29.6-29.6h130.2c16.3 0 29.6 13.3 29.6 29.6V727c0 16.3-13.2 29.5-29.5 29.5zM292.4 608H184.6V715.9h107.8V608z m11.3-406.7H173.4c-16.3 0-29.6-13.3-29.6-29.6v-130.2c0-16.3 13.3-29.6 29.6-29.6h130.2c16.3 0 29.6 13.3 29.6 29.6V171.7c0 16.3-13.2 29.6-29.5 29.6z m-11.3-148.7H184.6V160.4h107.8v-107.8z m427.7 514.6h130.2c16.3 0 29.6 13.3 29.6 29.6V727c0 16.3-13.3 29.6-29.6 29.6H720.1c-16.3 0-29.6-13.3-29.6-29.6v-130.2c0-16.3 13.2-29.6 29.6-29.6z m11.1 148.7H839V608H731.2V715.9zM425.7 344.2H51.3c-25.8 0-46.8-21-46.8-46.8v-374.5c0-25.8 21-46.8 46.8-46.8h374.5c25.8 0 46.8 21 46.8 46.8V297.4c0 25.8-21 46.8-46.9 46.8z m6.1-421.4c0-3.4-2.7-6-6-6H51.3c-3.4 0-6 2.7-6 6V297.4c0 3.4 2.7 6 6 6h374.5c3.4 0 6-2.7 6-6v-374.6z m168.4 420c-25.8 0-46.8-21-46.8-46.8v-215.4c0-11.2 9.2-20.4 20.4-20.4s20.4 9.2 20.4 20.4V295.9c0 3.4 2.7 6 6 6H827c11.2 0 20.4 9.2 20.4 20.4s-9.2 20.4-20.4 20.4l-226.8 0.1z m-2.3 85.1h374.5c25.8 0 46.8 21 46.8 46.8V849.2c0 25.8-21 46.8-46.8 46.8H597.9c-25.8 0-46.8-21-46.8-46.8v-374.5c0-25.8 21-46.8 46.8-46.8z m-6 421.3c0 3.4 2.7 6 6 6h374.5c3.4 0 6-2.7 6-6v-374.5c0-3.4-2.7-6-6-6H597.9c-3.4 0-6 2.7-6 6V849.2z m427.6-526.8c0 11.2-9.2 20.4-20.4 20.4h-74.7c-11.2 0-20.4-9.2-20.4-20.4s9.2-20.4 20.4-20.4h54.3v-78.6H809.2c-11.2 0-20.4-9.2-20.4-20.4s9.2-20.4 20.4-20.4h189.9c11.2 0 20.4 9.2 20.4 20.4V322.4zM643.8-83.8h-49.6v56.7c0 11.2-9.2 20.4-20.4 20.4s-20.4-9.2-20.4-20.4v-77.2c0-11.2 9.2-20.4 20.4-20.4h70c11.2 0 20.4 9.2 20.4 20.4s-9.2 20.5-20.4 20.5z m225.5 158c0 11.2-9.2 20.4-20.4 20.4H720.2c-11.2 0-20.4-9.2-20.4-20.4v-180.4c0-11.2 9.2-20.4 20.4-20.4s20.4 9.2 20.4 20.4v160H849c11.3 0 20.3 9.2 20.3 20.4z m129.6 74.1c-11.2 0-20.4-9.2-20.4-20.4v-215H794c-11.2 0-20.4-9.2-20.4-20.4s9.2-20.4 20.4-20.4h204.9c11.2 0 20.4 9.2 20.4 20.4V127.8c0 11.4-9.2 20.5-20.4 20.5zM672.3 258.7c-11.2 0-20.4-9.2-20.4-20.4V172c0-11.2 9.2-20.4 20.4-20.4s20.4 9.2 20.4 20.4v66.3c0 11.4-9.2 20.4-20.4 20.4z"  horiz-adv-x="1024" />

    
    <glyph glyph-name="dianzan" unicode="&#59112;" d="M933.008886 560.932721c-39.996094 10.498975-134.086906 10.398984-271.573479 13.998633 6.499365 29.997071 7.999219 57.094424 7.999219 105.189728C669.434626 794.909872 585.842789 896 511.950005 896c-52.294893 0-95.290694-42.69583-95.990626-95.290694-0.699932-64.393712-20.597988-175.682843-127.987501-232.177327-7.899229-4.19959-30.397032-15.298506-33.69671-16.698369l1.699834-1.399863c-16.79836 14.498584-40.096084 25.5975-63.99375 25.5975H95.990626c-52.894834 0-95.990626-43.095791-95.990626-95.990626v-511.950005c0-52.894834 43.095791-95.990626 95.990626-95.990626h95.990626c38.09628 0 69.893174 22.997754 85.391661 55.19461 0.399961-0.09999 1.099893-0.299971 1.499853-0.399961 2.099795-0.599941 4.599551-1.199883 7.699248-1.999805 0.599941-0.09999 0.899912-0.19998 1.499854-0.39996 18.398203-4.599551 53.894737-13.098721 129.687335-30.497022 16.298408-3.699639 102.09003-21.997852 191.18133-21.997852h174.882922c53.294795 0 92.890929 19.898057 114.588809 61.693975 21.29792 37.196368 125.687726 236.476907 125.587736 517.149497-0.19998 40.596036-28.197246 92.190997-90.991114 110.089249zM88.191388-73.805292c-23.197735 0-41.995899 18.798164-41.995899 41.995898V480.040621c0 23.197735 18.798164 41.995899 41.995899 41.995899h95.990625c23.197735 0 41.995899-18.798164 41.995899-41.995899v-511.850015c0-23.197735-18.798164-41.995899-41.995899-41.995898h-95.990625z m520.549165 0.09999c-87.691436 0-175.782834 19.798067-179.482473 20.597988C302.470462-23.910165 289.971682-20.310517 281.672493-17.910751l-8.49917 2.399766 4.799531 477.653354c0 23.197735 0.299971 32.596817 0.399961 36.196465l0.299971 6.399375 1.599844 0.699932c1.899814 2.799727 5.099502 4.19959 8.199199 4.19959h1.799824C449.956059 579.530905 469.154184 735.715653 469.954106 800.109364c0.19998 20.597988 15.998438 41.895909 41.995899 41.895909 20.797969 0 46.69544-18.698174 67.693389-48.695245 13.398692-19.198125 35.896494-59.49419 35.896495-113.188946 0-72.692901-2.999707-89.891222-25.697491-158.084562 289.771702-0.09999 305.070208-4.29958 330.067767-11.098916 1.399863-0.399961 2.899717-0.799922 4.499561-1.199883l0.19998-0.09999c41.995899-11.998828 45.195586-47.895323 45.195586-58.594278 0-7.199297-0.09999-9.299092-0.29997-12.49878-0.09999-1.799824-0.19998-3.999609-0.399961-7.999218-6.899326-167.383654-38.696221-286.572014-64.193731-356.965141-26.397422-73.192852-51.195-109.989259-54.494679-114.78879-12.79875-22.497803-33.396739-32.596817-66.793477-32.596816H608.740553z"  horiz-adv-x="1024" />

    
    <glyph glyph-name="fenxiang" unicode="&#59113;" d="M893.9-108.5H121c-48.5 0-121 41.3-121 99V763.4c0 57.2 71.9 93.8 121 93.8h314.8V809H121c-30.2 0-73.9-23.1-73.9-45.6v-772.9c0-22.5 42.2-52 73.9-52h772.9c9.7 0 24.8 0.8 24.8 52V324h48.2v-333.4c0-82.3-39.8-99.1-73-99.1zM330.3 107.7H282c0 193.8 53.3 341.3 158.5 434.9 120.5 107.3 306.4 150 552.7 121.2l-5.6-46.5c-231.9 27-405.2-13.8-514.9-111.4-94.5-84.1-142.4-204.3-142.4-398.2zM802.5 420.5l-34.2 34.2L956.7 643 767.8 843.3 803 876.5 1024 642 802.5 420.5z"  horiz-adv-x="1024" />

    
    <glyph glyph-name="guanli" unicode="&#59114;" d="M429.9 303.3l0.3-295.4c-3.2-19.3-9.4-35.5-18.1-48.3-7-10.2-15.9-18.7-26.5-24.9-17.9-10.7-35.7-12.7-39-12.9L132.9-77c-19 1.6-35 7-47.3 15.9-9.9 7-18 16.6-24.2 28.4-11.7 22.2-12.9 45.2-13.1 47.7V219.9c7.7 34.4 24.5 57.7 51.3 71.4 21.8 11.3 42.9 11.9 44.3 11.9l286 0.1m-286.1 48.2C138.3 351.5 24.9 350 0 225v-210.6s1.3-129.4 130.7-139.6l217-1.3s111.7 2.5 130.7 130.7l-0.3 347.3H143.8z m736.3-48.2h0.3c2.2 0 22.8-0.9 44.2-11.9 26.6-13.7 43.5-37.2 51.3-71.4v-205.3c0-1.4-1.1-23.3-11.9-45.2-6.1-12.6-14.3-22.6-24.2-29.9-12.6-9.3-28.8-14.8-48.5-16.6l-213.9-1.3c-2.2 0.1-18.5 1.8-35.8 11.3-11.3 6.2-20.7 14.6-28.2 24.9-9.5 13.2-16 29.9-19.4 50.1l0.3 295.4h285.8m0.1 48.1H545.9l-0.3-347.4c19-128.2 130.7-130.7 130.7-130.7l217 1.3c129.4 10.2 130.7 139.6 130.7 139.6V224.9C999.3 350 885.8 351.5 880.2 351.5zM677.5 846.4l213.7-1.3c19-1.6 35-7 47.3-15.9 9.9-7 18-16.6 24.2-28.4 11.7-22.2 12.9-45.2 13.1-47.7V548c-7.7-34.4-24.5-57.7-51.3-71.4-21.8-11.3-42.9-11.9-44.3-11.9H594.1l-0.3 295.4c3.2 19.3 9.4 35.5 18.1 48.3 7 10.2 15.9 18.7 26.5 24.9 18.1 10.8 35.8 12.7 39.1 13.1m-1.2 48.2S564.6 892.1 545.6 763.9l0.3-347.3h334.4c5.5 0 118.9 1.5 143.8 126.5V753.8S1022.8 883.2 893.4 893.4L676.3 894.6zM346.8 846.4c2.2-0.1 18.5-1.8 35.8-11.3 11.3-6.2 20.7-14.6 28.2-24.9 9.5-13.2 16-29.9 19.4-50.1l-0.3-295.4H143.5c-2.2 0-22.8 0.9-44.2 11.9C72.7 490.3 55.8 513.8 48 548V753.4c0 1.4 1.1 23.3 11.9 45.2C66 811.2 74.2 821.2 84.1 828.5c12.6 9.3 28.8 14.8 48.5 16.6l214.2 1.3m0.9 48.2l-217-1.3C1.3 883.2 0 753.8 0 753.8v-210.6c24.7-125 138.2-126.5 143.8-126.5h334.4l0.3 347.3C459.3 892.1 347.7 894.6 347.7 894.6z"  horiz-adv-x="1024" />

    
    <glyph glyph-name="guanliyuan" unicode="&#59115;" d="M311.7 385.1c-86.6 43.3-145 129.9-145 233.8 0 142.9 116.9 259.8 259.8 259.8s259.8-116.9 259.8-259.8c0-140.7-110.4-255.5-251.1-259.8H433c-214.3 0-389.7-175.4-389.7-389.7 0-13-8.7-21.6-21.6-21.6S0-43.6 0-30.6c0 197 132.1 363.7 311.7 415.7z m114.8 17.3c119.1 0 216.5 97.4 216.5 216.5S545.6 835.4 426.5 835.4 210 738 210 618.9s97.4-216.5 216.5-216.5z m593.2-142.9l4.3-10.8-52-62.8c-8.7-10.8-8.7-28.1 0-39l52-60.6-4.3-10.8c-10.8-30.3-26-60.6-47.6-84.4l-8.7-8.7-80.1 13c-13 2.2-28.1-6.5-32.5-19.5L822.7-102l-10.8-2.2c-41.1-8.7-82.3-8.7-123.4 0l-13 2.2-26 75.8c-4.3 13-19.5 21.6-32.5 19.5l-82.3-13-8.7 8.7c-10.8 10.8-19.5 23.8-26 36.8-8.7 15.2-17.3 32.5-21.6 49.8l-4.3 10.8 54.1 60.6c8.7 10.8 8.7 28.1 0 36.8l-52 62.8 4.3 10.8c10.8 32.5 28.1 60.6 49.8 86.6l8.7 8.7 77.9-13c13-2.2 28.1 6.5 34.6 19.5l28.1 75.8 10.8 2.2c39 8.7 80.1 8.7 121.2 0l13-2.2 26-73.6c4.3-13 19.5-23.8 34.6-21.6l80.1 10.8 8.7-8.7c10.8-13 19.5-23.8 26-39 6.7-10.9 13.2-28.2 19.7-43.4z m-60.6 26c-4.3 8.7-8.7 15.2-15.2 23.8l-56.3-6.5c-34.6-4.3-69.3 17.3-80.1 49.8l-17.3 49.8c-26 4.3-52 4.3-77.9 0l-19.5-52c-10.8-32.5-47.6-54.1-82.3-47.6l-54.1 8.7c-13-15.2-21.6-34.6-30.3-52l36.8-43.3c21.6-26 21.6-67.1 0-93.1l-36.8-43.3c4.3-10.8 8.7-19.5 15.2-30.3 4.3-8.7 8.7-15.2 15.2-21.6l58.5 8.7c34.6 4.3 69.3-17.3 80.1-49.8l17.3-52c26-4.3 54.1-4.3 80.1 0l19.5 54.1c10.8 32.5 47.6 54.1 80.1 47.6l54.1-8.7c10.8 15.2 21.6 32.5 28.1 52L939.6 121c-21.6 26-23.8 67.1-2.2 93.1l36.8 43.3c-4.3 8.6-8.7 17.3-15.1 28.1zM751.2 69c-54.1 0-97.4 43.3-97.4 97.4 0 54.1 43.3 97.4 97.4 97.4 54.1 0 97.4-43.3 97.4-97.4 0-54.1-45.4-97.4-97.4-97.4z m0 43.3c30.3 0 54.1 23.8 54.1 54.1s-23.8 54.1-54.1 54.1-54.1-23.8-54.1-54.1 23.8-54.1 54.1-54.1z"  horiz-adv-x="1024" />

    
    <glyph glyph-name="hongbao" unicode="&#59116;" d="M384 207.4c-14.5 0-25.6-11.1-25.6-25.6s11.1-25.6 25.6-25.6h102.4v-122c0-14.5 11.1-25.6 25.6-25.6s25.6 11.1 25.6 25.6v122H640c14.5 0 25.6 11.1 25.6 25.6s-11.1 25.6-25.6 25.6H537.6V274H640c14.5 0 25.6 11.1 25.6 25.6s-11.1 25.6-25.6 25.6h-99.8L658 443c10.2 10.2 10.2 26.5 0 35.8-10.2 10.2-26.5 10.2-35.8 0L512 368.6 401.9 478.7c-10.2 10.2-26.5 10.2-35.8 0-10.2-10.2-10.2-26.5 0-35.8l117.8-117.8H384c-14.5 0-25.6-11.1-25.6-25.6s11.1-25.6 25.6-25.6h102.4v-66.6l-102.4 0.1zM802.1 896H221.9c-56.3 0-102.4-46.1-102.4-102.4V675c0-10.2 6.8-20.5 17.1-23.9l367.8-122c2.6-0.9 5.1-1.7 7.7-1.7 2.6 0 5.1 0.9 7.7 1.7l367.8 122c10.2 3.4 17.1 12.8 17.1 23.9V793.6C904.5 849.9 858.5 896 802.1 896z m51.2-202.2L512 580.3 170.7 693.8v99.8c0 28.2 23 51.2 51.2 51.2h580.3c28.2 0 51.2-23 51.2-51.2l-0.1-99.8zM878.9 580.3c-14.5 0-25.6-11.1-25.6-25.6V0c0-42.7-34.1-76.8-76.8-76.8h-529c-42.7 0-76.8 34.1-76.8 76.8V554.7c0 14.5-11.1 25.6-25.6 25.6s-25.6-11.1-25.6-25.6V0c0-70.8 57.2-128 128-128h529.1c70.8 0 128 57.2 128 128V554.7c-0.1 14.5-11.2 25.6-25.7 25.6z"  horiz-adv-x="1024" />

    
    <glyph glyph-name="huiyi" unicode="&#59117;" d="M901.1 822.6H122.9C54.6 822.6 0 768 0 699.7v-320.9c0-11.9 10.2-22.2 22.2-22.2s22.2 10.2 22.2 22.2V699.7c0 44.4 35.8 78.5 78.5 78.5h778.2c44.4 0 78.5-35.8 78.5-78.5v-320.9c0-11.9 10.2-22.2 22.2-22.2s22.2 10.2 22.2 22.2V699.7c0 66.6-54.6 122.9-122.9 122.9zM643.4 209.9c-6.8-10.2-3.4-23.9 6.8-30.7 68.3-44.4 110.9-119.5 114.3-201.4 0-11.9 10.2-20.5 22.2-20.5h1.7c11.9 0 22.2 10.2 20.5 22.2-3.4 95.6-54.6 182.6-134.8 235.5-10.2 6.9-23.9 5.2-30.7-5.1zM215-32.4c0-11.9 10.2-22.2 22.2-22.2s22.2 10.2 22.2 22.2c0 134.8 107.5 245.8 240.6 252.6h12c93.9 0 170.7 76.8 170.7 170.7S605.9 561.5 512 561.5s-170.7-76.8-170.7-170.7c0-58 29-110.9 75.1-141.7C300.4 208.2 215 97.3 215-32.4z m170.7 421.5c0 70 56.3 126.3 126.3 126.3s126.3-56.3 126.3-126.3c0-68.3-54.6-122.9-121.2-126.3-1.7 0-3.4 1.7-5.1 1.7h-11.9c-63.2 5.2-114.4 59.8-114.4 124.6z m455.7-126.3c34.1 25.6 56.3 66.6 56.3 112.6 0 78.5-63.1 141.7-141.7 141.7-17.1 0-32.4-3.4-47.8-8.5-11.9-3.4-17.1-17.1-13.7-27.3 3.4-11.9 17.1-17.1 27.3-13.7 10.2 3.4 22.2 5.1 32.4 5.1 54.6 0 97.3-44.4 97.3-97.3 0-51.2-39.3-92.2-88.7-97.3h-10.2c-1.7 0-3.4 0-5.1-1.7-11.9 0-22.2-8.5-22.2-20.5s8.5-22.2 20.5-22.2h15.4c102.4-5.1 186-87 191.1-191.1 0-11.9 10.2-20.5 22.2-20.5h1.7c11.9 0 22.2 10.2 20.5 22.2-1.7 100.8-66.6 184.4-155.3 218.5zM46.1 22.2c11.9 0 22.2 8.5 22.2 20.5 5.1 104.1 87 186 191.1 191.1h15.4c11.9 0 22.2 10.2 20.5 22.2 0 11.9-10.2 22.2-22.2 20.5-1.7 0-3.4 1.7-5.1 1.7h-10.2c-47.8 3.4-87 46.1-87 97.3 0 54.6 44.4 97.3 97.3 97.3 11.9 0 22.2-1.7 32.4-5.1 11.9-3.4 23.9 1.7 27.3 13.7s-1.7 23.9-13.7 27.3c-15.4 5.1-30.7 8.5-47.8 8.5-78.5 0-141.7-63.1-141.7-141.7 0-46.1 22.2-87 56.3-112.6C92.2 228.7 27.3 145.1 22.2 44.4c1.7-12 11.9-22.2 23.9-22.2z"  horiz-adv-x="1024" />

    
    <glyph glyph-name="kehudingdan" unicode="&#59118;" d="M702.6 581.4c17.8 0 32.2 14.4 32.2 32.1 0 17.8-14.4 32.2-32.2 32.2-17.8 0-32.1-14.4-32.1-32.2 0-17.7 14.3-32.1 32.1-32.1zM147.5 637.5h431.6v-48H147.5v48zM913.3 896H244.8c-55.7 0-100.9-45.3-100.9-101v-31.2h-33.1c-55.7 0-101-45.3-101-101V-27c0-55.7 45.3-101 101-101h668.5c55.6 0 100.9 45.3 100.9 101v31.1h33.1c55.7 0 101.1 45.3 101.1 101V795C1014.3 850.7 969 896 913.3 896zM57.7 662.9c0 29.2 23.7 52.9 53 52.9h668.5c29.2 0 52.9-23.7 52.9-52.9v-138.5H57.7V662.9z m774.4-610.7V-27c0-29.2-23.7-53-52.9-53H110.7c-29.2 0-53 23.8-53 53V476.4h774.4v-424.2z m134.2 52.9c0-29.2-23.8-52.9-53.1-52.9h-33.1V662.9c0 55.7-45.3 101-100.9 101H191.9V795c0 29.2 23.7 52.9 52.9 52.9h668.5c29.3 0 53.1-23.8 53.1-52.9v-689.9h-0.1z"  horiz-adv-x="1024" />

    
    <glyph glyph-name="kucunguanli" unicode="&#59120;" d="M1014.8 518.9L526.1 891.6c-0.4 0.3-0.9 0.4-1.4 0.7-1.4 0.9-2.8 1.5-4.3 2.1-1.4 0.5-2.7 1.1-4.1 1.4-1.4 0.2-2.8 0.2-4.2 0.2-1.5 0-3 0-4.5-0.3-1.4-0.3-2.6-0.8-4-1.3-1.5-0.6-3-1.2-4.4-2.1-0.4-0.3-0.9-0.3-1.4-0.7L9.2 518.9C-1 511.1-3 496.5 4.8 486.3c4.6-6 11.5-9.2 18.5-9.2 4.9 0 9.9 1.6 14.1 4.8l31 23.7v-517.4c0-64 50-116.2 111.5-116.2h661.4c61.5 0 111.5 52.1 111.5 116.2V507.7l33.8-25.8c4.2-3.2 9.2-4.8 14.1-4.8 7 0 14 3.2 18.5 9.2 7.8 10.2 5.8 24.8-4.4 32.6zM906.2-11.8c0-38.4-29.1-69.6-64.9-69.6H179.9c-35.8 0-64.9 31.2-64.9 69.6V541L512 843.8l394.2-300.6v-555zM721.5 290.9h-419c-12.9 0-23.3 10.4-23.3 23.3s10.4 23.3 23.3 23.3h418.9c12.9 0 23.3-10.4 23.3-23.3s-10.4-23.3-23.2-23.3z m0-139.6h-419c-12.9 0-23.3 10.4-23.3 23.3s10.4 23.3 23.3 23.3h418.9c12.9 0 23.3-10.4 23.3-23.3s-10.4-23.3-23.2-23.3z m0-139.7h-419c-12.9 0-23.3 10.4-23.3 23.3s10.4 23.3 23.3 23.3h418.9c12.9 0 23.3-10.4 23.3-23.3s-10.4-23.3-23.2-23.3z"  horiz-adv-x="1024" />

    
    <glyph glyph-name="qiye" unicode="&#59121;" d="M298.5 454.9h-95.2c-13.3 0-27.1-13.3-27.1-20.5 0-13.3 13.3-27.1 27.1-27.1H298c13.3 0 27.1 13.3 27.1 27.1s-13.3 20.5-26.6 20.5z m460.8-372.7c13.3 0 27.1 13.3 27.1 27.1V204c0 13.3-13.3 27.1-27.1 27.1s-27.1-13.3-27.1-27.1v-94.7c0-13.8 13.8-27.1 27.1-27.1z m-460.8 149h-95.2c-13.3 0-27.1-13.3-27.1-27.1 0-13.3 13.3-27.1 27.1-27.1H298c13.3 0 27.1 13.3 27.1 27.1 0.5 13.2-13.3 27.1-26.6 27.1z m460.8 108.5c13.3 0 27.1 13.3 27.1 27.1v94.7c0 13.3-13.3 27.1-27.1 27.1s-27.1-13.3-27.1-27.1v-94.7c0-20.4 13.8-27.1 27.1-27.1zM501.8 231.2H407c-13.3 0-27.1-13.3-27.1-27.1 0-13.3 13.3-27.1 27.1-27.1h94.7c13.3 0 27.1 13.3 27.1 27.1 0.1 13.2-13.2 27.1-27 27.1z m0 454.1H407c-13.3 0-27.1-13.3-27.1-27.1 0-13.3 13.3-27.1 27.1-27.1h94.7c13.3 0 27.1 13.3 27.1 27.1 0.1 20.5-13.2 27.1-27 27.1z m481.8-738.8H936V556.8c0 47.6-33.8 74.8-74.8 74.8H644.1V801c0 47.6-33.8 74.8-74.8 74.8H135.7C88.1 875.8 60.9 842 60.9 801v-854.5H27.1C13.8-53.5 0-66.8 0-80.6s13.3-27.1 27.1-27.1h969.7c13.3 0 27.1 13.3 27.1 27.1-13.2 13.3-27 27.1-40.3 27.1zM861.2 583.9c13.3 0 27.1-13.3 27.1-27.1v-610.3H644.1V583.9h217.1zM108.5 801c0 13.3 13.3 27.1 27.1 27.1h440.8c13.3 0 27.1-13.3 27.1-27.1v-854.5h-495V801z m190-115.7h-95.2c-13.3 0-27.1-13.3-27.1-27.1 0-13.3 13.3-27.1 27.1-27.1H298c13.3 0 27.1 13.3 27.1 27.1 0.5 20.5-13.3 27.1-26.6 27.1z m203.3-230.4H407c-13.3 0-27.1-13.3-27.1-20.5 0-13.3 13.3-27.1 27.1-27.1h94.7c13.3 0 27.1 13.3 27.1 27.1s-13.2 20.5-27 20.5z"  horiz-adv-x="1024" />

    
    <glyph glyph-name="qianbao" unicode="&#59122;" d="M1024 7.1c0-67.3-54.6-121.9-121.9-121.9H121.9C54.6-114.8 0-60.2 0 7.1V738.6c0 53.9 43.7 97.5 97.5 97.5h394.2L578.1 879c12.5 4.5 31.8 6.2 41.8-2.1l23.5-40.8H829c53.9 0 97.5-43.7 97.5-97.5v-73.1c53.9 0 97.5-43.7 97.5-97.5v-560.9zM97.5 787.3c-26.9 0-48.8-46.2-48.8-73.1 0-26.9 21.8-48.8 48.8-48.8h35.2-24.4 4.6c0.3 0.1 0.5 0.4 0.8 0.5L406 787.3H97.5z m513.9-4.4l-25.9 46.9-86.8-42.5h-0.2L229.3 665.4h440.4l-58.3 117.5z m266.3-44.3c0 26.9-21.8 48.8-48.8 48.8H661.1l59.9-122h156.7v73.2z m48.8-121.9h-829c-17.8 0-34.4 5.1-48.7 13.5v-623.1c0-40.4 32.7-73.1 73.1-73.1h780.2c40.4 0 73.1 32.7 73.1 73.1V177.8h-97.5c-53.9 0-97.5 43.7-97.5 97.5s43.7 97.5 97.5 97.5h97.5v195c0 27-21.8 48.9-48.7 48.9z m48.7-390.1v97.5h-97.5c-26.9 0-48.8-21.8-48.8-48.8 0-26.9 21.8-48.8 48.8-48.8h97.5v0.1z m-97.5 73.1h48.8v-48.8h-48.8v48.8z"  horiz-adv-x="1024" />

    
    <glyph glyph-name="saoyisao" unicode="&#59123;" d="M337 850H23C10.3 850 0 860.3 0 873S10.3 896 23 896h314c12.7 0 23-10.3 23-23s-10.3-23-23-23zM0 559V873C0 885.7 10.3 896 23 896s23-10.3 23-23v-314c0-12.7-10.3-23-23-23S0 546.3 0 559zM978 559V873c0 12.7 10.3 23 23 23s23-10.3 23-23v-314c0-12.7-10.3-23-23-23s-23 10.3-23 23zM687 896h314c12.7 0 23-10.3 23-23s-10.3-23-23-23H687c-12.7 0-23 10.3-23 23s10.3 23 23 23zM687-82h314c12.7 0 23-10.3 23-23s-10.3-23-23-23H687c-12.7 0-23 10.3-23 23s10.3 23 23 23zM1024 209v-314c0-12.7-10.3-23-23-23s-23 10.3-23 23V209c0 12.7 10.3 23 23 23s23-10.3 23-23zM46 209v-314c0-12.7-10.3-23-23-23s-23 10.3-23 23V209c0 12.7 10.3 23 23 23s23-10.3 23-23zM337-128H23c-12.7 0-23 10.3-23 23s10.3 23 23 23h314c12.7 0 23-10.3 23-23s-10.3-23-23-23zM1003.2 372.3H20.8C9.3 372.3 0 381.7 0 393.2 0 404.7 9.3 414 20.8 414h982.3c11.5 0 20.8-9.3 20.8-20.8 0.1-11.5-9.2-20.9-20.7-20.9z"  horiz-adv-x="1024" />

    
    <glyph glyph-name="shezhi" unicode="&#59124;" d="M512.8 175.4c113.8 0 202.7 92.5 202.7 206.3S623 588 512.8 588c-113.8 0-202.7-92.5-202.7-206.3-0.1-113.8 92.4-206.3 202.7-206.3z m0 56.9c-81.8 0-149.4 67.6-149.4 149.4S431 531.1 512.8 531.1s149.4-67.6 149.4-149.4c0-81.8-67.6-149.4-149.4-149.4zM222.2 14.9c38-31 80.2-56.3 125.4-75.2 46.6 43 107.5 68.1 168.4 68.1 64.5 0 121.9-25.1 168.4-68.1 46.6 17.9 89.6 43 125.4 75.2-14.3 60.9-3.6 125.4 25.1 182.8 32.2 53.8 82.4 96.8 143.3 114.7 3.6 25.1 7.2 50.1 7.2 75.3 0 25.1-3.6 50.2-7.2 75.2-60.9 17.9-111.1 60.9-143.3 114.7-32.3 53.8-39.4 121.8-25.1 182.8-37.9 31-80.2 56.4-125.4 75.3-46.6-43-103.9-68.1-168.4-68.1-60.9 0-121.8 25.1-168.4 68.1-46.6-17.9-89.6-43-125.4-75.3 14.3-60.9 3.6-125.4-25.1-182.8-32.3-53.8-82.4-96.8-143.3-114.7-3.6-25.1-7.2-50.2-7.2-75.2 0-25.1 3.6-50.2 7.2-75.3 60.9-17.9 111.1-60.9 143.3-114.7 28.7-57.4 39.4-121.9 25.1-182.8m125.4-129c-60.9 21.5-118.3 53.7-168.4 100.3-7.2 7.2-10.8 17.9-7.2 25.1 17.7 52.6 11.1 110.4-17.9 157.7-28.7 50.2-71.7 82.4-125.4 93.2-10.7 3.6-17.9 10.8-17.9 21.5C3.6 315.9 0 351.8 0 384s3.6 64.5 10.8 100.3c3.6 10.7 10.7 17.9 17.9 21.5C82.4 520.2 129 552.4 154.1 599c28.7 50.2 32.3 103.9 17.9 157.7-3.6 10.8 0 21.5 7.2 25.1 50.2 43 107.5 75.3 168.4 100.3 10.7 3.6 17.9 0 25.1-7.2 39.4-39.4 89.6-64.5 143.3-64.5 53.8 0 107.5 21.5 143.3 64.5 7.2 7.2 17.9 10.8 25.1 7.2 60.9-21.5 118.2-53.8 168.4-100.3 7.2-7.2 10.7-17.9 7.2-25.1-17.7-52.6-11.2-110.4 17.9-157.7 28.7-50.2 71.6-82.4 125.4-93.2 10.7-3.6 17.9-10.7 17.9-21.5 7.1-32.3 10.7-68.1 10.7-100.3s-3.6-64.5-10.7-100.4c-3.6-10.7-10.8-17.9-17.9-21.5-53.7-14.3-100.3-46.5-125.4-93.1-28.7-50.1-32.3-103.9-17.9-157.7 3.5-10.7 0-21.5-7.2-25.1-50.2-43-107.5-75.2-168.4-100.3-10.8-3.6-17.9 0-25.1 7.2-39.4 39.4-89.6 64.5-143.3 64.5s-107.5-21.5-143.3-64.5c-3.6-3.6-10.8-7.2-17.9-7.2h-7.2z"  horiz-adv-x="1031" />

    
    <glyph glyph-name="shenpi" unicode="&#59125;" d="M991.695578-72.091075H32.104424s0-33.699689 20.199814-47.199565c14.699864-9.79991 34.899678-8.599921 61.299435-8.599921h796.992652c28.19974 0 49.699542-1.799983 65.599396 9.199915 18.499829 12.899881 15.499857 46.59957 15.499857 46.599571zM34.604401-3.991703H987.995612V168.206709c0 15.299859-3.099971 29.399729-7.999926 41.699616-6.099944 13.499876-14.699864 25.099769-26.399757 33.699689-18.39983 14.09987-42.29961 21.499802-71.099345 21.499802H734.797946c-2.499977 3.699966-4.899955 6.099944-6.699938 8.599921-4.29996 5.499949-9.199915 9.79991-13.499876 14.09987-3.699966 3.699966-7.399932 7.399932-9.199915 9.799909-6.699938 9.199915-11.599893 17.799836-15.299859 26.999752-4.899955 11.599893-1.799983 28.799735 7.399932 50.299536 8.599921 19.599819 20.799808 37.99965 33.699689 56.999474 15.899853 23.89978 34.299684 50.899531 47.199565 83.999226 6.099944 16.599847 9.79991 32.4997 12.899881 48.399554l0.599995 3.099971c1.799983 8.599921 6.699938 37.399655 2.499977 66.799384-0.599994 3.699966-0.599994 7.399932-1.199989 10.999899-0.599994 7.999926-1.199989 17.199841-4.299961 26.999751C775.997566 723.101594 753.997769 765.401204 718.998092 804.000848c-29.399729 32.4997-67.399379 57.599469-113.398955 75.399305C577.199399 889.900056 544.099704 896 508.500032 896c-37.99965 0-74.79931-6.699938-104.799034-18.39983-42.29961-16.499848-77.899282-40.499627-106.699016-69.899356-29.999723-31.299711-52.09952-68.699367-65.599395-112.198966-6.099944-19.599819-19.599819-69.899356-10.399904-120.798886 3.099971-17.199841 6.099944-32.4997 10.999898-48.399554 15.299859-47.799559 42.29961-84.59922 66.19939-116.498926 10.999899-14.699864 21.499802-28.799735 30.699717-43.499599 5.499949-9.199915 9.199915-17.799836 10.999899-25.799762 1.199989-7.399932 1.199989-14.09987-1.799984-20.199814-5.499949-12.899881-17.199841-26.399757-31.299711-37.99965l-0.599995-0.599994-0.599994-0.599994c-5.499949-4.29996-10.999899-10.399904-16.599847-16.599847H135.203474c-12.299887 0-36.799661-3.699966-63.799412-26.999752-10.399904-9.199915-29.399729-28.799735-35.599672-53.999502-1.799983-7.999926-3.699966-19.599819-2.499977-81.499248 0.599994-30.699717 1.199989-58.899457 1.199989-60.099446l0.099999-45.899577z m47.199565 176.498373c4.899955 18.39983 32.4997 44.099593 52.09952 44.099593s122.59887-0.599994 174.098395-0.599994c6.699938 6.099944 20.799808 22.099796 27.599745 27.599745 18.39983 14.699864 36.199666 34.299684 45.999576 56.999475 14.699864 33.699689 2.499977 66.799384-12.299886 90.699164-30.699717 48.999548-72.999327 88.89918-91.999152 148.998626-4.29996 13.499876-6.699938 27.599746-9.199916 42.29961-6.099944 33.699689 0.599994 72.299333 9.199916 98.099096C300.701948 755.0013 351.001484 804.600843 421.500834 832.900582c24.499774 9.79991 55.799486 14.699864 87.099197 14.699864 28.19974 0 56.39948-4.29996 79.699266-12.899881 37.99965-14.699864 69.899356-34.899678 94.999124-62.499424 27.599746-30.699717 47.199565-64.399406 58.899457-111.598971 2.499977-10.999899 2.499977-21.499802 4.29996-33.699689 2.499977-15.899853 1.199989-36.199666-1.799983-50.299537-3.099971-15.299859-5.499949-29.999723-10.999899-43.499599-20.799808-52.699514-57.599469-87.699192-80.29926-138.598722-10.999899-24.499774-20.199814-56.999475-8.59992-87.699191 5.499949-14.09987 12.899881-26.399757 21.499802-37.99965 7.399932-9.79991 17.199841-17.799836 24.499774-26.999751 4.29996-4.899955 14.699864-20.799808 19.599819-25.799762h172.298412c34.299684 0 56.999475-14.09987 56.999474-48.399554v-123.798859H81.803966c0 0.599994-3.099971 115.198938 0 128.698814z"  horiz-adv-x="1024" />

    
    <glyph glyph-name="shengchanguanli" unicode="&#59126;" d="M357 646.7C357 741.3 277.1 818 178.5 818S0 741.3 0 646.7c0-46 19-87.8 49.8-118.7C41.4 494.3 37 459.2 37 422.9c0-162.9 89.4-305.8 223.6-385.8l35.7 140.7C223.4 236.5 177 324.5 177 422.9c0 17.9 1.5 35.5 4.5 52.5C278.7 477 357 553.1 357 646.7m153.1 95.7c61.7 0 119.4-16.1 169-44.2-7.9-19.3-12-40.2-12-62 0-94.6 79.9-171.3 178.4-171.3S1024 541.6 1024 636.2 944 807.5 845.5 807.5c-23.1 0-45.2-4.2-65.3-11.8-76.7 51.2-169.6 81.2-270.1 81.2-68 0-132.6-13.8-191.1-38.6l81.6-113.5c34.3 11.4 71.1 17.6 109.5 17.6m332.6-333.8c-5.3-116.4-75.7-216.7-177.1-268.3-29.5 55.5-89.6 93.5-159 93.5-98.6 0-178.5-76.7-178.5-171.3s79.9-171.4 178.5-171.4c73.9 0 137.6 43.2 164.5 104.8 182 63.3 312 230.6 312 427 0 10.1-0.4 20-1.1 29.9l-139.3-44.2zM506.6-62.9c-73.1 0-132.5 56.2-132.5 125.4 0 69.1 59.4 125.3 132.5 125.3 50.4 0 95.7-26.5 118.4-69.1l21.2-39.9 40.3 20.5c108.7 55.3 182.9 158.6 199.2 274.6l50.1 15.9c-6.1-73.1-32.5-142.7-77.3-202.9-24.9-33.5-54.8-63.1-89-88.1-34.6-25.3-72.7-45.3-113.5-59.5l-19-6.6-8.1-18.4c-9.8-22.4-26.2-41.5-47.5-55.3-22-14.3-47.9-21.9-74.8-21.9zM232.4 113c-37.7 30.9-69.8 68-94.3 109.5-36 60.8-55 130.2-55 200.5 0 32 3.8 63.6 11.4 94l6.3 25.2-18.4 18.4C58.9 584 46 614.6 46 646.7c0 69 59.4 125.3 132.5 125.3 73 0 132.5-56.2 132.5-125.3 0-32.8-13.3-63.8-37.4-87.3-24.6-24-57.6-37.5-92.9-38.1l-37.9-0.6-6.6-37.4c-3.5-19.6-5.2-39.9-5.2-60.5 0-98.9 41.1-192.5 113.8-261.2L232.4 113z m613.1 397.9c-73 0-132.4 56.2-132.4 125.3 0 15.6 2.9 30.6 8.6 44.7l15.3 37.5-35.2 19.9c-57.9 32.8-124.2 50.2-191.7 50.2-30.9 0-61.4-3.5-91-10.6l-26.8 37.3c38.1 10.4 77.5 15.7 117.8 15.7 88 0 172.5-25.4 244.5-73.5l19.7-13.2 22.1 8.4c15.5 5.9 32 8.9 49 8.9 73.1 0 132.5-56.2 132.5-125.3 0.1-69.1-59.3-125.3-132.4-125.3z"  horiz-adv-x="1024" />

    
    <glyph glyph-name="sousuo" unicode="&#59127;" d="M758.5 173.4C827.2 250.1 869 351.5 869 462.6 869 701.9 675 896 435.6 896 196.3 896 2.2 701.9 2.2 462.6c0-239.4 194-433.4 433.4-433.4 108.8 0 208.3 40.1 284.5 106.4L983.7-128l38.1 38.1-263.3 263.3z m-322.9-90.6c-209.4 0-379.8 170.4-379.8 379.8S226.2 842.4 435.6 842.4s379.8-170.5 379.8-379.8c0-209.4-170.3-379.8-379.8-379.8z"  horiz-adv-x="1024" />

    
    <glyph glyph-name="tianjia" unicode="&#59128;" d="M994 354H30c-16.5 0-30 13.5-30 30s13.5 30 30 30h964c16.5 0 30-13.5 30-30s-13.5-30-30-30zM542 866v-964c0-16.5-13.5-30-30-30s-30 13.5-30 30V866c0 16.5 13.5 30 30 30s30-13.5 30-30z"  horiz-adv-x="1024" />

    
    <glyph glyph-name="tongxunlu" unicode="&#59129;" d="M872.329623 896H155.669596C108.778754 896 66.087092 853.308338 66.087092 802.118336v-132.274165c0-12.7975 8.49834-21.295841 21.295841-21.295841h29.894161c12.7975-4.29916 17.096661-8.49834 17.096661-17.09666s-8.49834-17.096661-17.096661-17.096661H87.382933c-12.7975 0-21.295841-8.49834-21.295841-21.295841v-170.666667c0-12.7975 8.49834-21.295841 21.295841-21.29584h29.894161c8.49834 0 17.096661-8.49834 17.096661-17.096661 0-8.49834-4.29916-17.096661-12.7975-17.096661H87.382933c-12.7975 0-21.295841-8.49834-21.295841-21.29584v-170.666667c0-12.7975 8.49834-21.295841 21.295841-21.295841h29.894161c8.49834 0 17.096661-8.49834 17.096661-17.096661s-8.49834-17.096661-17.096661-17.09666H87.382933c-12.7975 0-21.295841-8.49834-21.295841-21.295841v-132.274165c0-51.190002 42.691662-93.881664 89.582504-93.881664h712.360867c51.190002 0 89.582503 42.691662 89.582503 93.881664V802.118336C961.912127 853.308338 919.220465 896 872.329623 896zM108.778754-33.918375V76.959969h8.49834c34.093341 0 59.688342 25.595001 59.688342 59.688342s-25.595001 59.688342-59.688342 59.688342h-8.49834v127.975005h8.49834c34.093341 0 59.688342 25.595001 59.688342 59.688342s-25.595001 59.688342-59.688342 59.688342h-8.49834v127.975005h8.49834c34.093341 0 59.688342 25.595001 59.688342 59.688342S151.370435 691.040031 117.277094 691.040031h-8.49834V802.118336c0 25.595001 21.295841 51.190002 46.890842 51.190002h98.080843v-938.516696h-98.080843c-25.595001 0.09998-46.890842 25.694981-46.890842 51.289983z m810.441711 0c0-29.894161-21.295841-51.190002-46.890842-51.190002h-575.887522V853.308338h575.887522c25.595001 0 46.890842-25.595001 46.890842-51.190002v-836.036711zM697.463777 315.813318C740.055458 345.707479 769.949619 392.598321 769.949619 448.087483c0 85.283343-72.485843 157.869166-157.869166 157.869166S454.311267 533.370826 454.311267 448.087483c0-55.489162 29.894161-102.380004 72.485843-132.274165-55.489162-21.295841-102.380004-68.286663-127.975005-127.975005-4.29916-12.7975 0-21.295841 12.797501-25.595001s21.295841 0 25.595001 12.7975c29.894161 72.485843 93.881664 119.476665 170.666666 119.476665S752.952939 247.626635 778.54794 175.040812c4.29916-8.49834 12.7975-12.7975 21.295841-12.7975h8.49834c12.7975 4.29916 17.096661 17.096661 12.7975 25.595001-21.295841 63.987502-68.286663 106.679164-123.675844 127.975005zM496.902949 448.087483c0 63.987502 51.190002 115.177504 115.177504 115.177504S727.257957 512.074985 727.257957 448.087483s-51.190002-115.177504-115.177504-115.177504c-63.987502 4.29916-115.177504 55.489162-115.177504 115.177504z"  horiz-adv-x="1024" />

    
    <glyph glyph-name="tongzhi" unicode="&#59130;" d="M904.3 94.3l-75.1 132.2V502.8c0 57.6-20.9 118.3-58.9 171-38.7 53.6-92.9 95.5-152.8 118.1-0.3 0.1-0.7 0.3-1.1 0.4-1.4 0.4-6.5 2.1-14 4.2v9.2C602.4 855.4 561.8 896 512 896s-90.4-40.6-90.4-90.4v-8.5c-7-2-11.4-3.4-11.9-3.6-0.3-0.1-0.5-0.2-0.8-0.3-60.8-22-116-63.9-155.4-117.9-38.7-53.1-60-114.3-60-172.6v-276.3L113 84.9c-9.7-16.9-9.6-37.9 0.2-54.8 9.7-16.8 27.9-27.3 47.5-27.3h198.7c11.4-74 75.5-130.8 152.6-130.8s141.2 56.8 152.6 130.8h198.7c30.3 0 54.9 24.6 54.9 54.9 0 13.7-4.9 26.6-13.9 36.6zM512 848.8c23.1 0 42-18.2 43.2-41-4.8 0.9-9.7 1.8-14.6 2.5-2.1 0.3-4.2 0.3-6.2 0.1-0.8 0.1-1.7 0.3-2.6 0.4-6 0.9-12.9 1.9-20.5 1.9s-14.4-1-20.5-1.9c-0.7-0.1-1.5-0.2-2.2-0.3-2.1 0.3-4.3 0.3-6.4 0-4.4-0.6-8.9-1.4-13.3-2.2 1.3 22.5 20.1 40.5 43.1 40.5z m0-929.6c-51 0-93.8 35.8-104.6 83.6h209.2C605.8-45 563-80.8 512-80.8zM863.3 50H160.7c-2.8 0-5.3 1.4-6.6 3.7-1.4 2.4-1.4 5.4-0.1 7.8l83.5 147c2 3.6 3.1 7.6 3.1 11.7V502.7c0 102.1 79 207.8 183.9 246 3.4 1.1 30.6 9.5 57.9 14 1.6-0.2 3.3-0.2 5 0 3.7 0.4 7.1 0.9 10.4 1.4 5 0.8 9.4 1.4 13.4 1.4 4.1 0 8.4-0.7 13.4-1.4 3.3-0.5 6.7-1 10.4-1.4 1.5-0.2 3-0.2 4.5 0 28.4-4.8 57.4-13.8 61.7-15.2C704.4 708.4 782 603.3 782 502.7v-282.5c0-4.1 1.1-8.1 3.1-11.7l79.7-140.2c1.1-2 2.5-3.7 4.1-5.3 1.4-1.4 2.2-3.3 2.2-5.4-0.1-4.2-3.5-7.6-7.8-7.6z"  horiz-adv-x="1024" />

    
    <glyph glyph-name="tongji" unicode="&#59131;" d="M260.9 492.3H54.7c-21 0-37.9-17.6-37.9-39.4V-88.9c0-21.2 16.9-39.1 37.9-39.1h206.2c21.1 0 38.2 17.9 38.2 39.1V453c0 21.8-17.1 39.3-38.2 39.3z m-6.8-572H61.8V444.1h192.4v-523.8zM615.3 896H408.9C388.1 896 371 878.7 371 856.3v-945.2c0-21.2 17-39.1 37.9-39.1H615.2c21.2 0 38.5 17.9 38.5 39.1V856.3C653.8 878.7 636.5 896 615.3 896zM606-83.6H418.9V851.6H606v-935.2z m363.4 769.1H763.2c-21.3 0-38.4-17.7-38.4-39.4v-735c0-21.2 17.1-39.1 38.4-39.1h206.2c21 0 37.8 17.9 37.8 39.1v735c0 21.8-16.7 39.4-37.8 39.4zM962-84.6H770V642.1h192v-726.7z"  horiz-adv-x="1024" />

    
    <glyph glyph-name="wenti" unicode="&#59132;" d="M512 896C229.7 896 0 666.4 0 384c0-282.3 229.6-512 512-512s512 229.6 512 512S794.3 896 512 896z m0-975.2C256.5-79.2 48.7 128.6 48.7 384 48.7 639.5 256.5 847.3 512 847.3S975.3 639.5 975.3 384c0-255.4-207.9-463.2-463.3-463.2z m35.2 218.7c0-19.3-15.6-34.9-34.9-34.9-19.3 0-34.9 15.6-34.9 34.9 0 19.3 15.6 34.9 34.9 34.9 19.3 0 34.9-15.7 34.9-34.9z m83.5 437c29.4-26.8 44.1-59.2 44.1-97.2 0-22-5.2-42.3-15.5-60.8s-30.5-41.1-60.6-67.6c-20.2-17.9-33.4-31.1-39.5-39.6-6.2-8.5-10.8-18.2-13.8-29.2s-4.7-28.8-5.2-53.6h-59.5c-0.2 8.3-0.3 14.4-0.3 18.5 0 24.3 3.5 45.2 10.3 62.9 5.1 13.3 13.2 26.7 24.4 40.2 8.2 9.8 23.1 24.3 44.5 43.2 21.4 18.9 35.4 33.9 41.8 45.1 6.4 11.2 9.6 23.4 9.6 36.7 0 24.1-9.4 45.2-28.2 63.3-18.8 18.2-41.9 27.3-69.2 27.3-26.4 0-48.4-8.3-66.1-24.8-17.7-16.5-29.3-42.2-34.8-77.2l-63.6 7.6c5.8 46.9 22.8 82.9 51.1 107.8 28.3 25 65.8 37.4 112.3 37.4 49.5 0.2 88.8-13.2 118.2-40z"  horiz-adv-x="1024" />

    
    <glyph glyph-name="xitongpeizhi" unicode="&#59134;" d="M512.8 175.4c113.8 0 202.7 92.5 202.7 206.3S623 588 512.8 588c-113.8 0-202.7-92.5-202.7-206.3-0.1-113.8 92.4-206.3 202.7-206.3z m0 56.9c-81.8 0-149.4 67.6-149.4 149.4S431 531.1 512.8 531.1s149.4-67.6 149.4-149.4c0-81.8-67.6-149.4-149.4-149.4zM222.2 14.9c38-31 80.2-56.3 125.4-75.2 46.6 43 107.5 68.1 168.4 68.1 64.5 0 121.9-25.1 168.4-68.1 46.6 17.9 89.6 43 125.4 75.2-14.3 60.9-3.6 125.4 25.1 182.8 32.2 53.8 82.4 96.8 143.3 114.7 3.6 25.1 7.2 50.1 7.2 75.3 0 25.1-3.6 50.2-7.2 75.2-60.9 17.9-111.1 60.9-143.3 114.7-32.3 53.8-39.4 121.8-25.1 182.8-37.9 31-80.2 56.4-125.4 75.3-46.6-43-103.9-68.1-168.4-68.1-60.9 0-121.8 25.1-168.4 68.1-46.6-17.9-89.6-43-125.4-75.3 14.3-60.9 3.6-125.4-25.1-182.8-32.3-53.8-82.4-96.8-143.3-114.7-3.6-25.1-7.2-50.2-7.2-75.2 0-25.1 3.6-50.2 7.2-75.3 60.9-17.9 111.1-60.9 143.3-114.7 28.7-57.4 39.4-121.9 25.1-182.8m125.4-129c-60.9 21.5-118.3 53.7-168.4 100.3-7.2 7.2-10.8 17.9-7.2 25.1 17.7 52.6 11.1 110.4-17.9 157.7-28.7 50.2-71.7 82.4-125.4 93.2-10.7 3.6-17.9 10.8-17.9 21.5C3.6 315.9 0 351.8 0 384s3.6 64.5 10.8 100.3c3.6 10.7 10.7 17.9 17.9 21.5C82.4 520.2 129 552.4 154.1 599c28.7 50.2 32.3 103.9 17.9 157.7-3.6 10.8 0 21.5 7.2 25.1 50.2 43 107.5 75.3 168.4 100.3 10.7 3.6 17.9 0 25.1-7.2 39.4-39.4 89.6-64.5 143.3-64.5 53.8 0 107.5 21.5 143.3 64.5 7.2 7.2 17.9 10.8 25.1 7.2 60.9-21.5 118.2-53.8 168.4-100.3 7.2-7.2 10.7-17.9 7.2-25.1-17.7-52.6-11.2-110.4 17.9-157.7 28.7-50.2 71.6-82.4 125.4-93.2 10.7-3.6 17.9-10.7 17.9-21.5 7.1-32.3 10.7-68.1 10.7-100.3s-3.6-64.5-10.7-100.4c-3.6-10.7-10.8-17.9-17.9-21.5-53.7-14.3-100.3-46.5-125.4-93.1-28.7-50.1-32.3-103.9-17.9-157.7 3.5-10.7 0-21.5-7.2-25.1-50.2-43-107.5-75.2-168.4-100.3-10.8-3.6-17.9 0-25.1 7.2-39.4 39.4-89.6 64.5-143.3 64.5s-107.5-21.5-143.3-64.5c-3.6-3.6-10.8-7.2-17.9-7.2h-7.2z"  horiz-adv-x="1031" />

    
    <glyph glyph-name="xiangce" unicode="&#59135;" d="M1024-30.5H0v829h1024v-829zM48.8 18.3h926.5V749.7H48.8v-731.4zM682.7 554.7c0-40.4 32.7-73.1 73.1-73.1 40.4 0 73.1 32.8 73.1 73.1 0 40.4-32.7 73.1-73.1 73.1-40.4 0-73.1-32.7-73.1-73.1zM24.4 213.3c-6.6 0-13.1 2.6-17.9 7.8-9.1 9.9-8.5 25.3 1.4 34.5l317 292.6c4.8 4.4 10.7 6.8 17.6 6.5 6.5-0.3 12.6-3.1 17-7.9l268.2-292.6c9.1-9.9 8.4-25.4-1.5-34.4-10-9.1-25.3-8.4-34.5 1.5L339.9 495.8l-299-276c-4.7-4.3-10.6-6.5-16.5-6.5zM999.6 67c-6.2 0-12.5 2.4-17.2 7.1l-250.9 251-177.9-177.8c-9.5-9.5-25-9.5-34.5 0s-9.5 25 0 34.5l195 195c9.5 9.5 25 9.5 34.5 0l268.2-268.2c9.5-9.5 9.5-25 0-34.5-4.7-4.7-10.9-7.1-17.2-7.1z"  horiz-adv-x="1024" />

    
    <glyph glyph-name="xiangji" unicode="&#59136;" d="M910.5 710.4H799.7c-2.8 6.4-14.4 33-19.9 44.5-16.4 34.2-26.4 48-59.9 48H307c-32.9 0-47.2-13.4-66.6-62.2-4.5-11.2-11.1-25.9-13.2-30.3H113.5C50.9 710.3 0 659.5 0 596.9v-518.4C0 16 50.9-34.9 113.5-34.9h797c62.6 0 113.5 50.9 113.5 113.4V596.9c0 62.6-50.9 113.5-113.5 113.5zM41.7 596.9c0 39.5 32.2 71.8 71.8 71.8h122.3c15.2 0 20.3 6.8 23.5 14.1 5.9 13.2 9.9 22.9 13.8 32.3 2.1 5.2 4.3 10.2 6.7 15.8 0.5 1.1 1 2.3 1.5 3.7 3.9 10 10.4 26.7 25.8 26.7h411.6c13.4 0 17.7-9.9 21.5-18.5l0.7-1.7c2.5-5.7 6.4-14.4 10.3-23.2 6.6-14.8 13.4-30.1 15.4-35 3.5-8.4 11.6-14.1 20.1-14.1h123.9c39.6 0 71.8-32.2 71.8-71.8v-518.4c0-39.5-32.2-71.7-71.8-71.7h-797c-39.6 0-71.8 32.2-71.8 71.7l-0.1 518.3zM512 104.7c128.3 0 232.7 104.4 232.7 232.7 0 128.3-104.4 232.7-232.7 232.7S279.3 465.8 279.3 337.5 383.7 104.7 512 104.7z m0 425.2c106.1 0 192.3-86.3 192.3-192.4 0-106.1-86.3-192.3-192.3-192.3s-192.3 86.3-192.3 192.3c0 106.1 86.2 192.4 192.3 192.4z m300.1-1.3h52c11.5 0 20.9 9.3 20.9 20.8s-9.4 20.8-20.9 20.8h-52c-11.5 0-20.9-9.3-20.9-20.8 0.1-11.5 9.4-20.8 20.9-20.8z"  horiz-adv-x="1024" />

    
    <glyph glyph-name="yaoqing" unicode="&#59137;" d="M80.343001-127.90001c-13.498655 0-24.69754 11.198884-24.697539 24.69754-0.59994 247.775317 200.080068 448.955275 448.355335 449.555215 13.498655 0 24.69754-11.198884 24.69754-24.697539s-11.198884-24.69754-24.69754-24.69754c-219.978086-0.59994-398.960256-179.48212-398.360316-399.560196-0.59994-14.098596-11.698835-25.29748-25.29748-25.29748z m423.157846 424.257736c-165.383525-0.59994-300.070107 133.586692-300.670048 298.970217S336.317501 895.39805 501.701026 895.99799s300.070107-132.986752 300.670047-298.970217v-1.19988c0-164.683594-133.586692-298.870227-298.870226-299.470167z m0 549.645245c-137.686284 0.59994-250.075088-111.288913-250.675028-248.975198S364.014742 346.952686 501.701026 346.352745c137.686284-0.59994 250.075088 111.188923 250.675028 248.875208v0.59994c0 138.386214-111.188923 249.575138-248.875207 250.175078z m160.584002-779.722325h276.572449v-55.294492H664.084849v55.294492z m110.688974 110.588983h55.294491v-276.572448h-55.294491V176.869629z m27.59725 27.697241c15.298476 0 27.697241-12.398765 27.697241-27.697241s-12.398765-27.697241-27.697241-27.697241-27.697241 12.398765-27.69724 27.697241 12.398765 27.697241 27.69724 27.697241z m0-277.172388c15.298476 0 27.697241-12.398765 27.697241-27.697241s-12.398765-27.697241-27.697241-27.697241-27.697241 12.398765-27.69724 27.697241c0.09999 15.398466 12.398765 27.697241 27.69724 27.697241z m138.286225 138.886164c15.298476 0 27.697241-12.398765 27.69724-27.697241s-12.398765-27.697241-27.69724-27.697241-27.697241 12.398765-27.697241 27.697241 12.398765 27.697241 27.697241 27.697241z m-276.572449 0c15.298476 0 27.697241-12.398765 27.697241-27.697241s-12.398765-27.697241-27.697241-27.697241-27.697241 12.398765-27.69724 27.697241 12.398765 27.697241 27.69724 27.697241z"  horiz-adv-x="1024" />

    
    <glyph glyph-name="gongyingshang" unicode="&#59139;" d="M1024 637.9L895 846H131.6L0 637.9v-106.3c0-50.7 45.1-91.8 102-91.8s102.6 41.1 102.6 91.8c0-50.7 45.9-91.8 102.8-91.8s103 41.1 103 91.8c0-50.7 46.1-91.8 103-91.8 57 0 103.1 41.1 103.1 91.8 0-50.7 46.2-91.8 103.1-91.8 56.9 0 103.1 41.1 103.1 91.8 0-50.7 43.8-91.8 100.7-91.8 56.9 0 100.7 41.1 100.7 91.8V637.9zM822.5 426.6c-27.2-23-63.4-37-103.1-37-39.7 0-75.9 14-103.1 37-27.2-23-63.4-37-103.1-37s-75.8 14-103.1 37c-27.2-23-63.4-37-103.1-37-39.6 0-75.8 14-103.1 37-27.3-23-62.6-37-102.3-37-21.4 0-44.1 4.1-59.4 11.5V-78h612V263.4h227.2V-78h100V401.1c-15.3-7.4-36.7-11.5-58.1-11.5-39.5 0-73.5 14.1-100.8 37zM469.6 36.2H142.4V263.4h327.2v-227.2z"  horiz-adv-x="1024" />

    
    <glyph glyph-name="kehu" unicode="&#59140;" d="M307.6 330.1c-0.7 0.6-1.4 1.1-2.1 1.7-0.8 0.1-1.6 0.3-2.3 0.4l1.5 0.3c-79 61.8-129.7 158-129.7 266 0 46.7 9.5 91.1 26.6 131.5-80.3-28.1-138-104.6-138-194.6C63.6 433 138.3 348 236.2 332 103 312.7 0 179 0 17h96c31.5 135.1 109.1 247.8 211.6 313.1z m251.3-10.7c134.2 21.9 236.6 138.4 236.6 278.8 0 156-126.5 282.5-282.5 282.5-156.1 0-282.6-126.5-282.6-282.5 0-140.4 102.4-256.9 236.6-278.8-182.5-26.6-323.7-210-323.7-432.1h739.3c0 222.1-141.3 405.4-323.7 432.1z m229 12.8c97.9 16 172.6 100.9 172.6 203.4 0 89.1-56.6 165-135.8 193.8 16.9-40.2 26.2-84.4 26.2-130.8 0-109.4-52-206.7-132.6-268.4 102.5-65.3 180.1-178 211.6-313.1h94.1c0 161.9-103 295.6-236.1 315.1z"  horiz-adv-x="1024" />

    
    <glyph glyph-name="pengyou" unicode="&#59141;" d="M647.5 301.4c-31.7 22.4-66.2 40.2-102.5 52.8 77 46.8 124.2 130.2 124.2 220.6 0 142.3-115.8 258.1-258.1 258.1-142.4 0-258.3-115.8-258.3-258.3 0-48.3 13.6-95.7 39.2-136.6 21.8-34.7 51.3-63.7 86.1-84.6-37.2-12.7-72-30.6-104.3-53.4-35.1-24.8-65.8-54.9-91.8-89.1C28.4 139.5 0 54.6 0-34.7c0-16.6 13.6-30.2 30.2-30.2l760.5 1.2c16.6 0 30.2 13.6 30.2 30.2 0 89.4-28.2 174.3-81.9 245.7-25.6 34.4-56.4 64.4-91.5 89.2zM959.6 250.2c-38.9 55.9-91.2 98.1-152 122.1 26.9 18.8 49.5 44.1 65.8 73.5 19 34.1 29 72.9 29 112.4 0 123.2-95.4 223.3-212.5 223.3-16.6 0-30.2-13.6-30.2-30.2s16.9-38 29.9-48.4c59.5-48.6 97.8-184.3 28.1-263.5-31.2-35.4-59.2-40.7-58-74.4v-0.2c0-16.6 15.2-23.2 30.2-30.2 113-53.7 178.1-156.2 203.8-299.2 6.1-34.2 63.5-23.9 100.1-22.7 16.6 0.4 30.2 13.6 30.2 30.2-0.2 75-22.4 146.6-64.4 207.3z"  horiz-adv-x="1024" />

    
    <glyph glyph-name="qiyechengyuan" unicode="&#59142;" d="M256 640c0-141.4 114.6-256 256-256s256 114.6 256 256S653.4 896 512 896 256 781.4 256 640zM593.3 377.6L512 296.3l-81.3 81.3C186.6 338.6 0 127.1 0-128h1024c0 255.1-186.6 466.6-430.7 505.6zM512-54.9l-87.7 87.7L512 296l87.7-263.3-87.7-87.6z"  horiz-adv-x="1024" />

    
    <glyph glyph-name="liaotianxuanzhong" unicode="&#59143;" d="M512 896C229.7 896 0 695 0 448.1c0-136.4 70-263.8 191.9-346.4V-128l224.4 136.3c32.5-5.5 64.8-8.1 95.7-8.1 282.3 0 512 200.9 512 447.9C1024 695 794.3 896 512 896zM318.3 446.1c-1-33.9-28.3-61.1-62.2-62.2-35.5 0-64.2 28.8-64.2 64.3s28.8 64.2 64.3 64.2c35.5-1.2 63.3-30.8 62.1-66.3z m255.9 0c-1.1-33.9-28.3-61.1-62.2-62.2-35.5 1.1-63.3 30.8-62.2 66.3 1.1 33.9 28.3 61.1 62.2 62.2 35.5-1.1 63.3-30.8 62.2-66.3z m193.7-62.2c-35.5 0-64.3 28.8-64.3 64.3s28.8 64.3 64.3 64.3 64.3-28.8 64.3-64.3-28.8-64.3-64.3-64.3z"  horiz-adv-x="1024" />

    
    <glyph glyph-name="liaotian" unicode="&#59144;" d="M191.9 101.7C70 184.3 0 311.7 0 448.1 0 695 229.7 896 512 896s512-201 512-447.9c0-247-229.7-447.9-512-447.9-30.9 0-63.2 2.6-95.7 8.1L191.9-128V101.7zM512 854.4c-260.1 0-471.6-181.3-471.6-404.2C40.4 320 114.6 196.9 239 121l0.6-157.9L396 57.4c38.3-7.2 77.1-10.9 116-11.3 260.1 0 471.6 181.3 471.6 404.2S772.1 854.4 512 854.4z m255.9-470.5c-35.5 0-64.3 28.8-64.3 64.3s28.8 64.3 64.3 64.3 64.3-28.8 64.3-64.3-28.8-64.3-64.3-64.3z m-255.9 0c-35.5 1.1-63.3 30.8-62.2 66.3 1.1 33.9 28.3 61.1 62.2 62.2 35.5-1.1 63.3-30.8 62.2-66.3-1.1-33.9-28.3-61.1-62.2-62.2z m-255.9 0c-35.5 0-64.2 28.8-64.2 64.3s28.8 64.2 64.3 64.2c35.5-1.2 63.3-30.8 62.1-66.3-1-33.9-28.3-61.1-62.2-62.2z"  horiz-adv-x="1024" />

    
    <glyph glyph-name="renmaixuanzhong" unicode="&#59145;" d="M647.5 301.4c-31.7 22.4-66.2 40.2-102.5 52.8 77 46.8 124.2 130.2 124.2 220.6 0 142.3-115.8 258.1-258.1 258.1-142.4 0-258.3-115.8-258.3-258.3 0-48.3 13.6-95.7 39.2-136.6 21.8-34.7 51.3-63.7 86.1-84.6-37.2-12.7-72-30.6-104.3-53.4-35.1-24.8-65.8-54.9-91.8-89.1C28.4 139.5 0 54.6 0-34.7c0-16.6 13.6-30.2 30.2-30.2l760.5 1.2c16.6 0 30.2 13.6 30.2 30.2 0 89.4-28.2 174.3-81.9 245.7-25.6 34.4-56.4 64.4-91.5 89.2zM959.6 250.2c-38.9 55.9-91.2 98.1-152 122.1 26.9 18.8 49.5 44.1 65.8 73.5 19 34.1 29 72.9 29 112.4 0 123.2-95.4 223.3-212.5 223.3-16.6 0-30.2-13.6-30.2-30.2s16.9-38 29.9-48.4c59.5-48.6 97.8-184.3 28.1-263.5-31.2-35.4-59.2-40.7-58-74.4v-0.2c0-16.6 15.2-23.2 30.2-30.2 113-53.7 178.1-156.2 203.8-299.2 6.1-34.2 63.5-23.9 100.1-22.7 16.6 0.4 30.2 13.6 30.2 30.2-0.2 75-22.4 146.6-64.4 207.3z"  horiz-adv-x="1024" />

    
    <glyph glyph-name="renmai" unicode="&#59146;" d="M543.6 342C628.2 386.4 686 475 686 577.2c0 146.7-118.9 265.6-265.6 265.6-146.6 0-265.6-118.9-265.6-265.6 0-102.6 58.3-191.5 143.5-235.7C129.5 289.8 5.8 135 0.1-49.6c0-0.2-0.1-0.4-0.1-0.6v-0.4c0.6-13.3 11.9-23.6 25.1-23 12.5 0.6 22.4 10.5 23 23h0.1c6.5 201 171 362.1 373.6 362.1S789 150.4 795.4-50.6c0-13.3 10.8-24.1 24.1-24.1s24.1 10.8 24.1 24.1c0 0.1-0.1 0.3-0.1 0.4-5.1 185.5-129.8 341-299.9 392.2zM203.1 577.1c0 120 97.3 217.3 217.3 217.3s217.3-97.3 217.3-217.3-97.3-217.3-217.3-217.3-217.3 97.3-217.3 217.3zM1024 33.9c0 154.2-99.7 284.7-238.2 331.4 70 39.2 117.5 113.8 117.5 199.8 0 120.5-93 218.8-211.2 228.1-2 0.5-3.9 1.2-6.1 1.2-13.3 0-24.1-10.8-24.1-24.1s10.8-24.1 24.1-24.1v-0.6c94.4-6.2 169-84.5 169-180.5 0-95.9-74.7-174.2-169-180.5v-0.6c-13.3 0-24.1-10.8-24.1-24.1s10.8-24.1 24.1-24.1v-0.6c161-6.4 289.7-138.6 289.7-301.2 0-4.1-0.4-8-0.6-12.1h0.6c0-13.3 10.8-24.1 24.1-24.1s24.1 10.8 24.1 24.1c0 0.8-0.4 1.5-0.5 2.3 0.3 3.2 0.6 6.4 0.6 9.7z"  horiz-adv-x="1024" />

    
    <glyph glyph-name="shoucangxuanzhong" unicode="&#59148;" d="M964.74295 544.1l-264 53.1L568.64295 831.9c-31.2 55.4-82 55.6-113.2 0L323.34295 597.2l-264-53.1c-62.3-12.5-78.2-60.8-35-107.7l182.4-198.1-31.1-267.5c-7.4-63.1 33.6-93.1 91.6-66.5L512.04295 16.5l244.8-112.3c57.8-26.5 98.9 3.2 91.6 66.5l-31.1 267.5 182.4 198.1c43 46.9 27.5 95.2-35 107.8z"  horiz-adv-x="1024" />

    
    <glyph glyph-name="shoucang" unicode="&#59149;" d="M964.74295 544.1l-264 53.1L568.64295 831.9c-31.2 55.4-82 55.6-113.2 0L323.34295 597.2l-264-53.1c-62.3-12.5-78.2-60.8-35-107.7l182.4-198.1-31.1-267.5c-7.4-63.1 33.6-93.1 91.6-66.5L512.04295 16.5l244.8-112.3c57.8-26.5 98.9 3.2 91.6 66.5l-31.1 267.5 182.4 198.1c43 46.9 27.5 95.2-35 107.8z m8.2-65.4L765.64295 253.5l35.4-304c0.5-4.8 0.6-8.6 0.3-11.7-3.8 0.9-7.5 2.3-11 3.9L512.04295 69.3 233.84295-58.2c-3.5-1.7-7.2-3-11-3.9-0.3 3.9-0.2 7.8 0.3 11.7l35.3 304L51.14295 478.7c-2.7 2.8-5.1 5.9-7.1 9.2 2.8 1.2 6.5 2.4 11.2 3.3l300 60.3L505.34295 818.3c2.3 4.1 4.6 7.3 6.5 9.6 2-2.3 4.2-5.5 6.6-9.6l150.1-266.7 300-60.3c4.7-0.9 8.4-2.1 11.2-3.3-1.9-3.4-4.2-6.5-6.8-9.3z"  horiz-adv-x="1024" />

    
    <glyph glyph-name="wodexuanzhong" unicode="&#59150;" d="M667.6 330.1c88.4 53.1 148.6 150.3 148.6 261.7C816.2 759.8 680 896 512 896S207.8 759.8 207.8 591.8c0-111.4 60.1-208.7 148.6-261.7C184.8 266.4 61 100.1 61-92.6c0-19.5 15.9-35.4 35.4-35.4s35.4 15.9 35.4 35.4c0 208.7 169.8 378.5 378.5 380.2h3.5c208.7-1.8 378.5-171.6 378.5-380.2 0-19.5 15.9-35.4 35.4-35.4s35.4 15.9 35.4 35.4c-0.1 194.5-122.1 359-295.5 422.7zM964.8-128c0.1 4.7 0.2 9.3 0.2 14 0 250.2-202.8 453-453 453S59 136.2 59-114c0-4.7 0.1-9.3 0.2-14h905.6z"  horiz-adv-x="1024" />

    
    <glyph glyph-name="wode" unicode="&#59151;" d="M883.8 184c-32.3 39.2-70.4 73-113 100.3-38.2 24.4-79.5 43.2-122.7 56 96.5 50.3 158.3 150.4 158.7 260.2 0.3 79.1-30.1 153.3-85.6 209C665.9 865.1 591.8 895.9 512.7 896h-0.4c-78.7 0-152.5-30.6-208.2-86.1-55.7-55.7-86.4-129.6-86.4-208.4 0-110.2 61.6-210.8 158.7-261.3-43.3-12.7-84.5-31.4-122.7-56-42.8-27.3-80.7-61.1-113-100.3C73.5 102.7 35.9 4.3 31.6-100.9c-0.3-7.2 2.2-14 7.2-19.1 5-5.3 11.8-8 19-8h0.2c14.1 0 25.6 11.1 26.2 25.2 4.4 107.3 48.9 208.3 125.1 284.5 79.8 79.8 190 125.5 302.7 125.5 114.4 0 221.9-44.6 302.7-125.5 76.2-76.2 120.5-177.1 125.1-284.5 0.6-14.1 12-25.2 26.2-25.2h0.3c7.2 0 14 2.9 19 8s7.5 11.9 7.2 19.1c-4.2 105.2-41.9 203.6-108.7 284.9zM753.9 601.6c0-133.4-108.4-241.8-241.8-241.8S270.3 468.2 270.3 601.6 378.8 843.4 512.1 843.4s241.8-108.5 241.8-241.8z"  horiz-adv-x="1024" />

    
    <glyph glyph-name="ziyuanxuanzhong" unicode="&#59153;" d="M0 435.2l162.4 162.4c2.9 2.9 6 5.2 9.4 7 0.2 0.1 0.3 0.2 0.5 0.3 0.9 0.5 1.9 1 2.9 1.4 0.3 0.1 0.6 0.3 0.9 0.4 0.9 0.4 1.8 0.7 2.7 1 0.4 0.1 0.8 0.3 1.2 0.4 0.9 0.3 1.7 0.5 2.6 0.7 0.5 0.1 1 0.3 1.4 0.4 0.9 0.2 1.9 0.3 2.9 0.4 0.4 0.1 0.8 0.1 1.3 0.2 1.4 0.1 2.8 0.2 4.2 0.2h683.3v43.4c0 28.2-23 51.2-51.2 51.2H354.3c-2.4 0-4.6 0.9-6.3 2.6l-63.5 63.5c-9.7 9.7-22.5 15-36.2 15H51.2c-28 0-50.8-22.6-51.2-50.5v-300zM927.6 567.7H192.3L0 375.4v-342.6c0.4-27.9 23.2-50.5 51.2-50.5v0.4c2-0.2 3.9-0.4 5.9-0.4h776.1c22 0 41.4 14.9 47.1 36.1l142.1 530.2c1.7 6.4 2 12.8 1.2 19.1h-96z"  horiz-adv-x="1024" />

    
    <glyph glyph-name="ziyuan" unicode="&#59154;" d="M1013.9 590.9c-9.3 12.1-23.4 19.1-38.7 19.1h-99.6v43.4c0 28.2-23 51.2-51.2 51.2H354.3c-2.4 0-4.6 0.9-6.3 2.6l-63.5 63.5c-9.7 9.7-22.5 15-36.2 15H51.2C23 785.7 0 762.7 0 734.5v-700.9c0-28.2 23-51.2 51.2-51.2v0.4c2-0.2 3.9-0.4 5.9-0.4h776c22 0 41.4 14.9 47.1 36.1l142 530.1c4.1 14.7 1 30.2-8.3 42.3zM51.2 743.3h197.2c2.4 0 4.6-0.9 6.3-2.6l63.5-63.5c9.7-9.7 22.5-15 36.2-15h470.1c4.9 0 8.9-4 8.9-8.9V610H199.2c-22 0-41.4-14.9-47.1-36.1L42.3 164.2V734.5c0 4.9 4 8.8 8.9 8.8z m930.2-183.8l-142-530.1c-0.8-2.8-3.3-4.8-6.2-4.8h-776c-2.8 0-4.4 1.6-5.1 2.5-0.7 0.9-1.8 2.9-1.1 5.6l142 530.1c0.8 2.8 3.3 4.8 6.2 4.8h776c2.8 0 4.4-1.6 5.1-2.5 0.8-0.9 1.9-2.9 1.1-5.6z"  horiz-adv-x="1024" />

    
    <glyph glyph-name="xiaoxixuanzhong" unicode="&#59155;" d="M512 896C229.7 896 0 695 0 448.1c0-136.4 70-263.8 191.9-346.4V-128l224.4 136.3c32.5-5.5 64.8-8.1 95.7-8.1 282.3 0 512 200.9 512 447.9C1024 695 794.3 896 512 896zM318.3 446.1c-1-33.9-28.3-61.1-62.2-62.2-35.5 0-64.2 28.8-64.2 64.3s28.8 64.2 64.3 64.2c35.5-1.2 63.3-30.8 62.1-66.3z m255.9 0c-1.1-33.9-28.3-61.1-62.2-62.2-35.5 1.1-63.3 30.8-62.2 66.3 1.1 33.9 28.3 61.1 62.2 62.2 35.5-1.1 63.3-30.8 62.2-66.3z m193.7-62.2c-35.5 0-64.3 28.8-64.3 64.3s28.8 64.3 64.3 64.3 64.3-28.8 64.3-64.3-28.8-64.3-64.3-64.3z"  horiz-adv-x="1024" />

    
    <glyph glyph-name="xiaoxi" unicode="&#59156;" d="M191.9 101.7C70 184.3 0 311.7 0 448.1 0 695 229.7 896 512 896s512-201 512-447.9c0-247-229.7-447.9-512-447.9-30.9 0-63.2 2.6-95.7 8.1L191.9-128V101.7zM512 854.4c-260.1 0-471.6-181.3-471.6-404.2C40.4 320 114.6 196.9 239 121l0.6-157.9L396 57.4c38.3-7.2 77.1-10.9 116-11.3 260.1 0 471.6 181.3 471.6 404.2S772.1 854.4 512 854.4z m255.9-470.5c-35.5 0-64.3 28.8-64.3 64.3s28.8 64.3 64.3 64.3 64.3-28.8 64.3-64.3-28.8-64.3-64.3-64.3z m-255.9 0c-35.5 1.1-63.3 30.8-62.2 66.3 1.1 33.9 28.3 61.1 62.2 62.2 35.5-1.1 63.3-30.8 62.2-66.3-1.1-33.9-28.3-61.1-62.2-62.2z m-255.9 0c-35.5 0-64.2 28.8-64.2 64.3s28.8 64.2 64.3 64.2c35.5-1.2 63.3-30.8 62.1-66.3-1-33.9-28.3-61.1-62.2-62.2z"  horiz-adv-x="1024" />

    
    <glyph glyph-name="zhijian" unicode="&#59159;" d="M511.9-128c-148.6 0-427.5 235.1-427.5 443.7V744.9l16.5 0.3c0.7 0 107.3 2 217.6 46.5C429.1 836.4 501.4 888.4 502.1 888.9l9.8 7.1L522 888.8c0.2-0.1 71.4-51.8 183.4-97.1 110.4-44.5 217.2-46.5 218.2-46.5l15.8-0.3 0.2-429.2c-0.1-208.7-279-443.7-427.7-443.7z m107.8 80.5c44.1 23.7 89.1 57 129.9 96.3 43 41.3 78.8 86.9 103.8 131.9 26.6 48.1 40.2 93.5 40.2 135l-0.2 385.2c-41.9 3.6-122.1 14.6-205.3 48.2-84.7 34.2-147.6 72.4-176.2 91-28.9-18.8-91.7-56.9-176.2-91-83.5-33.7-163.7-44.6-205.3-48.2v-385.1c0-41.6 13.5-87 40.1-135.1 24.9-45 60.8-90.6 103.7-131.9 40.9-39.3 85.8-72.5 129.9-96.3 41.4-22.2 79.6-34.5 107.7-34.5 28.2 0 66.5 12.3 107.9 34.5zM434.94 276.151l248.192 248.193 32.526-32.527-248.192-248.192zM380.16 395.995L500.012 276.14l-32.527-32.526-119.853 119.853z"  horiz-adv-x="1024" />

    
    <glyph glyph-name="hesuandan" unicode="&#59161;" d="M886.8 896H137.2C77.6 896 29.3 847.7 29.3 788.1v-808.2c0-59.6 48.3-107.9 107.9-107.9h749.6c59.6 0 107.9 48.3 107.9 107.9V788.1C994.7 847.7 946.4 896 886.8 896zM137.2-78c-31.9 0-57.9 26-57.9 57.9V788.1c0 31.9 26 57.9 57.9 57.9h749.6c31.9 0 57.9-26 57.9-57.9v-808.2c0-31.9-26-57.9-57.9-57.9H137.2zM398.1 561.9H273.2c-14.1 0.1-25.5-11-25.6-24.8v-0.2c-0.1-13.8 11.3-24.9 25.3-25H398c14.1-0.1 25.5 11 25.6 24.8v0.2c0.1 13.7-11.3 24.9-25.3 25h-0.2zM273.2 657.4h482.7c14.1-0.1 25.5 11 25.6 24.8v0.2c0.1 13.7-11.3 24.9-25.3 25h-483c-14.1 0.1-25.5-11-25.6-24.8v-0.2c0-11.1 11.4-25 25.6-25zM344.2 417.5h-71c-14.1 0.1-25.5-11-25.6-24.8v-0.2c-0.1-13.7 11.3-24.9 25.3-25h71.2c14.1-0.1 25.5 11 25.6 24.8v0.2c0.1 13.7-11.3 24.9-25.3 25h-0.2zM762.6 446h-52.8l-59.4-109.4c-15.8-29.7-25.5-49.4-29.1-59.1h-1c-10.5 23.8-39.9 80-88.5 168.6H476l103.9-178.5h-85.2v-39.4h99.8v-54.3h-99.8V134h99.8v-79.1H644V134h96.3v39.9H644v54.3h96.3v39.4h-82.7l105 178.4z"  horiz-adv-x="1024" />

    
    <glyph glyph-name="baojiadan" unicode="&#59162;" d="M886.8 896H137.2C77.6 896 29.3 847.7 29.3 788.1v-808.2c0-59.6 48.3-107.9 107.9-107.9h749.6c59.6 0 107.9 48.3 107.9 107.9V788.1C994.7 847.7 946.4 896 886.8 896zM137.2-78c-31.9 0-57.9 26-57.9 57.9V788.1c0 31.9 26 57.9 57.9 57.9h749.6c31.9 0 57.9-26 57.9-57.9v-808.2c0-31.9-26-57.9-57.9-57.9H137.2zM398.1 561.9H273.2c-14.1 0.1-25.5-11-25.6-24.8v-0.2c-0.1-13.8 11.3-24.9 25.3-25H398c14.1-0.1 25.5 11 25.6 24.8v0.2c0.1 13.7-11.3 24.9-25.3 25h-0.2zM273.2 657.4h482.7c14.1-0.1 25.5 11 25.6 24.8v0.2c0.1 13.7-11.3 24.9-25.3 25h-483c-14.1 0.1-25.5-11-25.6-24.8v-0.2c0-11.1 11.4-25 25.6-25zM344.2 417.5h-71c-14.1 0.1-25.5-11-25.6-24.8v-0.2c-0.1-13.7 11.3-24.9 25.3-25h71.2c14.1-0.1 25.5 11 25.6 24.8v0.2c0.1 13.7-11.3 24.9-25.3 25h-0.2zM644.3 421.1v-341.2c0-13.8-11.2-25-25-25s-25 11.2-25 25V421.1c0 13.8 11.2 25 25 25s25-11.2 25-25zM789.9 225.5H448.7c-13.8 0-25 11.2-25 25s11.2 25 25 25h341.2c13.8 0 25-11.2 25-25s-11.2-25-25-25z"  horiz-adv-x="1024" />

    
    <glyph glyph-name="jpeg" unicode="&#58894;" d="M399.8 595.1c4.3 1.7 7.7 4.3 10.1 7.9s3.7 7.7 3.7 12.5c0 5.8-1.7 10.6-5.1 14.4-3.4 3.8-7.8 6.2-13 7.1-3.9 0.7-11.6 1.1-23.3 1.1h-15.6v-45.5h17.7c12.7 0 21.2 0.8 25.5 2.5zM903.4 832.1H120.2c-30.8 0-55.9-25.2-55.9-55.9V-7c0-30.8 25.2-55.9 55.9-55.9h783.2c30.8 0 55.9 25.2 55.9 55.9V776.2c0 30.8-25.1 55.9-55.9 55.9z m-275.8-202c7 13 17.2 22.9 30.7 29.8 10.3 5.3 23.1 8 38.4 8 19.9 0 35.4-4.2 46.6-12.5 11.2-8.3 18.4-19.9 21.6-34.6l-32.1-6c-2.3 7.9-6.5 14.1-12.7 18.6s-14 6.8-23.3 6.8c-14.1 0-25.4-4.5-33.7-13.4-8.3-9-12.5-22.3-12.5-39.9 0-19 4.2-33.3 12.7-42.8 8.4-9.5 19.5-14.3 33.2-14.3 6.8 0 13.6 1.3 20.4 4 6.8 2.7 12.7 5.9 17.5 9.7v20.3h-37v27H767V527c-6.8-6.6-16.6-12.3-29.4-17.3-12.9-5-25.9-7.5-39.1-7.5-16.8 0-31.4 3.5-43.8 10.5-12.5 7-21.8 17.1-28.1 30.2-6.3 13.1-9.4 27.3-9.4 42.7 0 16.7 3.4 31.5 10.4 44.5z m-154.1 35h118.8V638h-86.4v-35.5h80.4v-27h-80.4v-43.6h89.5v-27H473.5V665.1z m-149.3 0h51.9c19.7 0 32.5-0.8 38.5-2.4 9.2-2.4 16.9-7.6 23.1-15.7 6.2-8.1 9.3-18.4 9.3-31.2 0-9.8-1.8-18.1-5.4-24.8-3.6-6.7-8.1-12-13.6-15.8-5.5-3.8-11.1-6.4-16.8-7.6-7.7-1.5-18.9-2.3-33.5-2.3h-21.1V505h-32.3V665.1zM217.8 557.9c0.4-9.2 1.7-15.7 4-19.4 3.5-5.8 8.8-8.6 16-8.6 7.2 0 12.3 2.1 15.3 6.2s4.5 12.7 4.5 25.6V665.1h32.2v-101.4c0-13.3-1.2-23.5-3.5-30.6-3.1-9.3-8.8-16.8-17-22.5-8.2-5.6-19.1-8.5-32.6-8.5-15.8 0-28 4.4-36.5 13.3s-12.8 21.8-12.9 39l30.5 3.5z m618.5-497.8h-649V384.6h649v-324.5zM499.1 88.1h281.2l-207.8 207L431.9 155l-60.7 60.5-128-127.4h121.5zM416.7 300.7m-50.4 0a50.4 50.4 0 1 1 100.8 0 50.4 50.4 0 1 1-100.8 0Z"  horiz-adv-x="1024" />

    
    <glyph glyph-name="erweima1" unicode="&#58881;" d="M62.996776 411.938306l423.162696 0L486.159472 835.099978 62.996776 835.099978 62.996776 411.938306zM168.788218 729.30956l211.580836 0 0-211.580836L168.788218 517.728724 168.788218 729.30956zM539.055193 835.099978l0-423.162696 423.162696 0L962.217888 835.099978 539.055193 835.099978zM856.426447 517.728724L644.845611 517.728724 644.845611 729.30956l211.580836 0L856.426447 517.728724zM221.682915 570.623421l105.790418 0L327.473333 676.414863 221.682915 676.414863 221.682915 570.623421zM62.996776-64.12011099999995l423.162696 0L486.159472 359.04258500000003 62.996776 359.04258500000003 62.996776-64.12011099999995zM168.788218 253.252167l211.580836 0 0-211.580836L168.788218 41.67133100000001 168.788218 253.252167zM803.531749 676.414863L697.740308 676.414863l0-105.790418 105.790418 0L803.530726 676.414863zM539.055193-64.12011099999995l105.790418 0L644.845611 41.67030799999998 539.055193 41.67030799999998 539.055193-64.12011099999995zM644.845611 253.252167l0-211.580836 105.790418 0L750.636029 253.252167 644.845611 253.252167zM856.426447 41.67030799999998L750.636029 41.67030799999998 750.636029-64.12011099999995l211.580836 0L962.216865 147.46174900000005 856.426447 147.46174900000005 856.426447 41.67030799999998zM856.426447 253.252167l105.790418 0L962.216865 359.04258500000003 856.426447 359.04258500000003 856.426447 253.252167zM539.055193 359.04258500000003l0-105.790418 105.790418 0L644.845611 359.04258500000003 539.055193 359.04258500000003zM221.682915 94.56602799999996l105.790418 0L327.473333 200.356446 221.682915 200.356446 221.682915 94.56602799999996z"  horiz-adv-x="1024" />

    
    <glyph glyph-name="wuliaoguanli" unicode="&#59166;" d="M14.3 619.4l484.3-258.6c8.4-4.4 18.7-4.4 27 0L1010 619.4c19.1 10.2 18.4 36.3-1.2 45.6L524.4 893.3c-7.7 3.6-16.8 3.6-24.6 0L15.6 665c-19.6-9.1-20.5-35.4-1.3-45.6z m27.1 45.1l-1.2-45.6L524.5 847h-24.6l484.3-228.2-1.2 45.6-484.3-258.5h27L41.4 664.5zM510-81.4L40.7 184.8l12.9-21.4V635.1c0 13.8-11.9 25-26.6 25S0.4 648.9 0.4 635.1v-471.7c0-8.8 4.9-17 12.9-21.5l469.4-266.2c12.6-7.2 28.9-3.3 36.5 8.5 7.5 11.8 3.5 27.2-9.2 34.4zM138.4 436.7l156.5-88.4c12.6-7.1 28.9-3.3 36.5 8.6 7.6 11.9 3.5 27.3-9.1 34.4l-156.5 88.4c-12.6 7.1-28.9 3.3-36.5-8.6-7.5-11.9-3.4-27.3 9.1-34.4zM971.9 642.5V464h0.4v-295.1L537.9-62V363.5c0 13.4-11.6 24.3-25.8 24.3-14.2 0.1-25.9-10.8-25.9-24.3v-467.1c0-18.6 21.4-30.3 38.5-21.1l486.1 258.4c8.2 4.3 13.1 12.4 13.1 21.1V642.5h-52z"  horiz-adv-x="1024" />

    
    <glyph glyph-name="caigoudan" unicode="&#59167;" d="M750.4-128c-7.4 0-14.9 0.8-22.2 2.5-35 8.8-63.3 37-72 72-6.6 29.3 0.2 59.3 18.5 82.2 18.4 23 45.8 36.2 75.1 36.2 7.4 0 14.9-0.8 22.2-2.5 35-8.8 63.3-37 72-72 6.6-29.3-0.2-59.3-18.5-82.2-18.3-23-45.7-36.2-75.1-36.2z m-3.3 146.1c-3.9 0-7.9-0.4-11.9-1.3-18.5-4.1-33.1-18.7-37.2-37.1-3.5-15.6 0.3-31.6 10.3-44.1 9.8-12.2 24.2-19.2 39.6-19.2 4.5 0 9.1 0.6 13.6 1.8 18.9 4.2 33 19.2 35.2 37.2 4 14.9 1.1 30.4-8.1 42.4-9.7 13-24.8 20.3-41.5 20.3zM414.3-128c-7.4 0-14.9 0.8-22.2 2.5-35 8.8-63.3 37-72 72-6.6 29.3 0.2 59.3 18.5 82.2 18.4 23 45.8 36.2 75.1 36.2 7.4 0 14.9-0.8 22.2-2.5 35-8.8 63.3-37 72-72 6.6-29.3-0.2-59.3-18.5-82.2-18.4-23-45.8-36.2-75.1-36.2zM411 18.1c-3.9 0-7.9-0.4-11.9-1.3-18.5-4.1-33.1-18.7-37.2-37.1-3.5-15.6 0.3-31.6 10.3-44.1 9.8-12.2 24.2-19.2 39.6-19.2 4.5 0 9.1 0.6 13.6 1.8 18.4 4.1 32.9 18.7 37 37.1 3.4 15.3-0.2 31-9.9 43.1-10.1 12.5-25.2 19.7-41.5 19.7z m-92.3 113.5c-43.3 0-72.8 8.3-92.8 26-17.3 15.4-28.7 37.8-39.1 77.2l-5.5 33.2v0.1c-2.3 10.2-4.6 24.3-7.3 40.5-1.6 10-3.5 21.3-5.6 33.2-9.4 51.8-20 118.4-31.2 188.9-1.9 12.2-3.9 24.4-5.8 36.6-20.8 125-34.7 211.4-42.5 264.3v0.2c-2.3 11.4-11.5 18.8-23.4 18.8H35.8c-11 0-22.7 7.9-22.7 22.7C13.2 885.4 23.8 896 35.8 896H95c15.9 0 28.7-11 32-27.4 4.1-22 9.4-55 15.5-93.2 2.1-13.2 4.3-27.1 6.7-41.5l0.7-4.2h810.2c12.8 0 26.3-6.2 37.1-17 9.6-9.6 15.1-24.5 13.4-36.4v-0.2l-37-369.6c-3.4-25.5-25.6-45.4-50.4-45.4H242.9c-0.6 0-5.9-0.1-11-5.2l-0.6-0.6-0.4-0.7c-2.4-4.8-2.4-9.3-2.4-11.5v-0.7l0.2-0.6c13.5-50.2 26.7-64.7 88.1-64.7h606.3c12.1 0 22.7-10.6 22.7-22.7s-10.6-22.7-22.7-22.7H318.7zM162.1 658.2c1.9-13.9 4.2-28.5 6.5-42.6 2.3-14.1 4.6-28.6 6.5-42.4v-0.1c6.5-42.1 13.4-82.9 20.1-122.3 6.3-37.6 12.3-73 16.9-103.2v-0.2c0.8-4.1 1.3-7.9 1.7-11.6 0.5-4.3 1-8.5 2.1-12.7 2.3-9 11.2-18.6 23.4-18.6h667.3c11.8 0 21.2 9.1 23.5 22.7v0.2l33.3 332.7c1 6.4-0.7 12.6-4.9 17.6-4.6 5.4-11.3 8.5-18.6 8.5H185.6c-6.7 0-13.2-3.1-17.8-8.6-4.8-5.6-6.8-12.7-5.7-19.4z"  horiz-adv-x="1024" />

    
    <glyph glyph-name="kehudingdanguanli" unicode="&#59240;" d="M702.6 581.4c17.8 0 32.2 14.4 32.2 32.1 0 17.8-14.4 32.2-32.2 32.2s-32.1-14.4-32.1-32.2c0-17.7 14.3-32.1 32.1-32.1zM147.5 637.5h431.6v-48H147.5v48zM822.8-8.9c44.1 0 78.6 35.9 78.6 80s-35.9 80-78.6 80c-44.1 0-78.6-35.9-78.6-80s35.8-80 78.6-80z m0 22.1c-31.7 0-57.9 26.2-57.9 57.9s26.2 57.9 57.9 57.9 57.9-26.2 57.9-57.9-26.2-57.9-57.9-57.9zM710.1-71.1c14.7-12 31.1-21.8 48.6-29.2 18.1 16.7 41.7 26.4 65.3 26.4 25 0 47.3-9.7 65.3-26.4 18.1 6.9 34.7 16.7 48.6 29.2-5.5 23.6-1.4 48.6 9.7 70.9 12.5 20.9 31.9 37.5 55.5 44.5 1.4 9.7 2.8 19.4 2.8 29.2 0 9.7-1.4 19.5-2.8 29.2-23.6 6.9-43.1 23.6-55.5 44.5-12.5 20.9-15.3 47.2-9.7 70.9-14.7 12-31.1 21.9-48.6 29.2-18.1-16.7-40.3-26.4-65.3-26.4-23.6 0-47.2 9.7-65.3 26.4-18.1-6.9-34.7-16.7-48.6-29.2 5.5-23.6 1.4-48.6-9.7-70.9-12.5-20.9-31.9-37.5-55.5-44.5-1.4-9.7-2.8-19.5-2.8-29.2s1.4-19.5 2.8-29.2c23.6-6.9 43.1-23.6 55.5-44.5 11.1-22.3 15.3-47.3 9.7-70.9m48.6-50c-23.6 8.3-45.9 20.8-65.3 38.9-2.8 2.8-4.2 6.9-2.8 9.7 6.9 20.4 4.3 42.8-6.9 61.1-11.1 19.5-27.8 31.9-48.6 36.1-4.1 1.4-6.9 4.2-6.9 8.3-2.8 12.5-4.2 26.4-4.2 38.9s1.4 25 4.2 38.9c1.4 4.1 4.1 6.9 6.9 8.3 20.8 5.6 38.9 18.1 48.6 36.1 11.1 19.5 12.5 40.3 6.9 61.1-1.4 4.2 0 8.3 2.8 9.7 19.5 16.7 41.7 29.2 65.3 38.9 4.1 1.4 6.9 0 9.7-2.8 15.3-15.3 34.7-25 55.5-25 20.9 0 41.7 8.3 55.5 25 2.8 2.8 6.9 4.2 9.7 2.8 23.6-8.3 45.8-20.9 65.3-38.9 2.8-2.8 4.1-6.9 2.8-9.7-6.9-20.4-4.3-42.8 6.9-61.1 11.1-19.5 27.8-31.9 48.6-36.1 4.1-1.4 6.9-4.1 6.9-8.3 2.8-12.5 4.1-26.4 4.1-38.9s-1.4-25-4.1-38.9c-1.4-4.1-4.2-6.9-6.9-8.3-20.8-5.5-38.9-18-48.6-36.1-11.1-19.4-12.5-40.3-6.9-61.1 1.4-4.1 0-8.3-2.8-9.7-19.5-16.7-41.7-29.2-65.3-38.9-4.2-1.4-6.9 0-9.7 2.8-15.3 15.3-34.7 25-55.5 25s-41.7-8.3-55.5-25c-1.4-1.4-4.2-2.8-6.9-2.8h-2.8zM913.3 896H244.8c-55.7 0-100.9-45.3-100.9-101v-31.2h-33.1c-55.7 0-101-45.3-101-101V-27c0-55.7 45.3-101 101-101H500c13.3 0 24 10.7 24 24s-10.7 24-24 24H110.7c-29.2 0-53 23.8-53 53V476.4h774.4V396c0-13.3 10.7-24 24-24s24 10.7 24 24V662.9c0 55.7-45.3 101-100.9 101H191.9V795c0 29.2 23.7 52.9 52.9 52.9h668.5c29.3 0 53.1-23.8 53.1-52.9v-399c0-13.3 10.7-24 24-24s24 10.7 24 24V795C1014.3 850.7 969 896 913.3 896zM779.2 715.8c29.2 0 52.9-23.7 52.9-52.9v-138.5H57.7V662.9c0 29.2 23.7 52.9 53 52.9h668.5z"  horiz-adv-x="1024" />

    
    <glyph glyph-name="jihuakongzhi" unicode="&#59250;" d="M222.6 339.5c-36.9 0-66.8-29.9-66.8-66.8s29.9-66.8 66.8-66.8 66.8 29.9 66.8 66.8-29.9 66.8-66.8 66.8z m0-89.1c-12.3 0-22.3 10-22.3 22.3s10 22.3 22.3 22.3 22.3-10 22.3-22.3-10-22.3-22.3-22.3zM222.6 584.3c-36.9 0-66.8-29.9-66.8-66.8s29.9-66.8 66.8-66.8 66.8 29.9 66.8 66.8-29.9 66.8-66.8 66.8z m0-89c-12.3 0-22.3 10-22.3 22.3s10 22.3 22.3 22.3 22.3-10 22.3-22.3-10-22.3-22.3-22.3zM464.7-103c0-13.7-11.2-25-25-25H324c-13.7 0-25 11.2-25 25 0 13.7 11.2 25 25 25h115.7c13.8 0 25-11.3 25-25zM474.7 339.5c-36.9 0-66.8-29.9-66.8-66.8s29.9-66.8 66.8-66.8 66.8 29.9 66.8 66.8-29.9 66.8-66.8 66.8z m0-89c-12.3 0-22.3 10-22.3 22.3s10 22.3 22.3 22.3 22.3-10 22.3-22.3-10-22.3-22.3-22.3zM474.7 584.3c-36.9 0-66.8-29.9-66.8-66.8s29.9-66.8 66.8-66.8 66.8 29.9 66.8 66.8-29.9 66.8-66.8 66.8z m0-89c-12.3 0-22.3 10-22.3 22.3s10 22.3 22.3 22.3 22.3-10 22.3-22.3-10-22.3-22.3-22.3zM724.4 584.3c-36.9 0-66.8-29.9-66.8-66.8s29.9-66.8 66.8-66.8 66.8 29.9 66.8 66.8-29.9 66.8-66.8 66.8z m0-89c-12.3 0-22.3 10-22.3 22.3s10 22.3 22.3 22.3 22.3-10 22.3-22.3-10-22.3-22.3-22.3zM794 332c-127 0-230-103-230-230s103-230 230-230 230 103 230 230-103 230-230 230z m0-414c-101.5 0-184 82.5-184 184s82.5 184 184 184 184-82.5 184-184-82.5-184-184-184zM794 33.1c-38.1 0-69 30.9-69 69s30.9 69 69 69 69-30.9 69-69c-0.5-38.6-30.9-69-69-69z m23 69.3c-0.2 12.5-10.4 22.7-23 22.7-12.7 0-23-10.3-23-23s10.3-23 23-23c12.8 0 22.7 10 23 23.3zM794 132.7c-12.7 0-23 10.3-23 23v77c0 12.6 10.3 23 23 23s23-10.4 23-23v-77c0-12.7-10.3-23-23-23zM824.4 102.1c0 12.7 10.3 23 23 23h77c12.7 0 23-10.3 23-23 0-12.6-10.3-23-23-23h-77c-12.6 0-23 10.4-23 23zM849.2 821h-49.9c0 41.4-33.5 75-75 75s-75-33.5-75-75h-99.9c0 41.4-33.5 75-74.8 75s-75-33.5-75-75h-99.9c0 41.4-33.5 75-75 75s-75-33.5-75-75h-50C44.7 821 0 776.3 0 721.2v-749.3c0-55.2 44.8-99.9 99.9-99.9H499.2c1 0 2.1 0.1 3.1 0.2H684v-0.2h110v31H692.3v18.8h-190c-1 0.1-2 0.2-3.1 0.2H222.5c-0.9 0-1.8-0.1-2.7-0.2H100c-27.6 0-49.9 22.3-49.9 49.9V721.2c0 27.6 22.3 49.9 49.9 49.9h49.9c0-41.4 33.5-75 75-75 41.4 0 75 33.5 75 75h99.9c0-41.4 33.5-75 75-75s75 33.5 75 75h99.9c0-41.4 33.5-75 75-75 41.4 0 75 33.5 75 75h49.9c27.6 0 49.9-22.3 49.9-49.9v-460.4h49.6V721.2C949 776.4 904.3 821 849.2 821z m-599.3-49.9c0-13.8-11.2-25-25-25s-25 11.2-25 25V821c0 13.8 11.2 25 25 25s25-11.2 25-25v-49.9z m249.8 0c0-13.8-11.2-25-25-25s-25 11.2-25 25V821c0 13.8 11.2 25 25 25s25-11.2 25-25v-49.9z m249.7 0c0-13.8-11.2-25-25-25s-25 11.2-25 25V821c0 13.8 11.2 25 25 25s25-11.2 25-25v-49.9z"  horiz-adv-x="1024" />

    
    <glyph glyph-name="jihuashenpi" unicode="&#59251;" d="M222.611934 339.522949c-36.898478 0-66.797245-29.898767-66.797245-66.797245s29.898767-66.797245 66.797245-66.797245 66.797245 29.898767 66.797246 66.797245-29.898767 66.797245-66.797246 66.797245z m0-89.096325c-12.299493 0-22.29908 9.999588-22.29908 22.29908s9.999588 22.29908 22.29908 22.29908 22.29908-9.999588 22.299081-22.29908-9.999588-22.29908-22.299081-22.29908zM222.611934 584.312854c-36.898478 0-66.797245-29.898767-66.797245-66.797245s29.898767-66.797245 66.797245-66.797245 66.797245 29.898767 66.797246 66.797245-29.898767 66.797245-66.797246 66.797245z m0-88.99633c-12.299493 0-22.29908 9.999588-22.29908 22.299081s9.999588 22.29908 22.29908 22.29908 22.29908-9.999588 22.299081-22.29908-9.999588-22.29908-22.299081-22.299081zM464.701951-102.958803c0-13.699435-11.199538-24.998969-24.998969-24.998969H324.007753c-13.699435 0-24.998969 11.199538-24.998969 24.998969 0 13.699435 11.199538 24.998969 24.998969 24.998969h115.695229c13.799431 0 24.998969-11.299534 24.998969-24.998969zM849.186094 821.003093h-49.897942c0 41.398293-33.498619 74.996907-74.996907 74.996907s-74.996907-33.498619-74.996907-74.996907h-99.89588c0 41.398293-33.498619 74.996907-74.796916 74.996907s-74.996907-33.498619-74.996907-74.996907h-99.89588c0 41.398293-33.498619 74.996907-74.996907 74.996907s-74.996907-33.498619-74.996907-74.996907h-49.997938C44.719271 821.003093 0.021114 776.304936 0.021114 721.207208v-749.269099c0-55.197724 44.798153-99.89588 99.89588-99.895881H499.200528c13.599439 0 24.798977 11.199538 24.798977 24.798978v0.399983c0 13.599439-11.199538 24.798977-24.798977 24.798977H222.511939c-0.899963 0-1.799926-0.099996-2.699889-0.199991H100.01699c-27.598862 0-49.897942 22.29908-49.897942 49.897942V721.207208c0 27.598862 22.29908 49.897942 49.897942 49.897943h49.897942c0-41.398293 33.498619-74.996907 74.996908-74.996907 41.398293 0 74.996907 33.498619 74.996907 74.996907h99.89588c0-41.398293 33.498619-74.996907 74.996907-74.996907s74.996907 33.498619 74.996907 74.996907h99.89588c0-41.398293 33.498619-74.996907 74.996908-74.996907 41.398293 0 74.996907 33.498619 74.996907 74.996907h49.897942c27.598862 0 49.897942-22.29908 49.897942-49.897943v-324.386622c0-13.599439 11.199538-24.798977 24.798977-24.798977s24.798977 11.199538 24.798978 24.798977V721.207208C948.981979 776.404932 904.283822 821.003093 849.186094 821.003093z m-599.275285-49.897942c0-13.799431-11.199538-24.998969-24.998969-24.998969s-24.998969 11.199538-24.998969 24.998969V821.003093c0 13.799431 11.199538 24.998969 24.998969 24.998969s24.998969-11.199538 24.998969-24.998969v-49.897942z m249.789698 0c0-13.799431-11.199538-24.998969-24.998969-24.998969s-24.998969 11.199538-24.998969 24.998969V821.003093c0 13.799431 11.199538 24.998969 24.998969 24.998969s24.998969-11.199538 24.998969-24.998969v-49.897942z m249.689703 0c0-13.799431-11.199538-24.998969-24.998969-24.998969s-24.998969 11.199538-24.998969 24.998969V821.003093c0 13.799431 11.199538 24.998969 24.998969 24.998969s24.998969-11.199538 24.998969-24.998969v-49.897942zM474.701538 339.522949c-36.898478 0-66.797245-29.898767-66.797245-66.797245s29.898767-66.797245 66.797245-66.797245 66.797245 29.898767 66.797245 66.797245-29.898767 66.797245-66.797245 66.797245z m0-88.99633c-12.299493 0-22.29908 9.999588-22.29908 22.299081s9.999588 22.29908 22.29908 22.29908 22.29908-9.999588 22.299081-22.29908-9.999588-22.29908-22.299081-22.299081zM474.701538 584.312854c-36.898478 0-66.797245-29.898767-66.797245-66.797245s29.898767-66.797245 66.797245-66.797245 66.797245 29.898767 66.797245 66.797245-29.898767 66.797245-66.797245 66.797245z m0-88.99633c-12.299493 0-22.29908 9.999588-22.29908 22.299081s9.999588 22.29908 22.29908 22.29908 22.29908-9.999588 22.299081-22.29908-9.999588-22.29908-22.299081-22.299081zM724.391241 584.312854c-36.898478 0-66.797245-29.898767-66.797245-66.797245s29.898767-66.797245 66.797245-66.797245 66.797245 29.898767 66.797245 66.797245-29.898767 66.797245-66.797245 66.797245z m0-88.99633c-12.299493 0-22.29908 9.999588-22.29908 22.299081s9.999588 22.29908 22.29908 22.29908 22.29908-9.999588 22.29908-22.29908-9.999588-22.29908-22.29908-22.299081zM1011.379405-106.158671H636.494866s0-13.199456 7.899674-18.399241c5.699765-3.799843 13.599439-3.39986 23.899014-3.39986h311.287163c10.999546 0 19.3992-0.699971 25.598944 3.599852 7.399695 5.09979 6.199744 18.199249 6.199744 18.199249z m-373.88458 26.598903h372.384642v67.297225c0 5.999753-1.199951 11.499526-3.099872 16.299328-2.399901 5.299781-5.699765 9.799596-10.299575 13.199455-7.199703 5.499773-16.49932 8.399654-27.798854 8.399654H910.983546c-0.999959 1.399942-1.899922 2.399901-2.599893 3.39986-1.69993 2.099913-3.599852 3.799843-5.299781 5.499773-1.399942 1.399942-2.89988 2.89988-3.599852 3.799843-2.599893 3.599852-4.499814 6.999711-5.999753 10.499567-1.899922 4.499814-0.699971 11.199538 2.899881 19.599192 3.39986 7.699682 8.099666 14.79939 13.199456 22.29908 6.199744 9.299616 13.399447 19.899179 18.399241 32.798648 2.399901 6.499732 3.799843 12.699476 4.999794 18.89922l0.199991 1.199951c0.699971 3.39986 2.599893 14.599398 0.999959 26.098924-0.199992 1.399942-0.199992 2.89988-0.499979 4.299822-0.199992 3.099872-0.499979 6.699724-1.69993 10.499567-4.999794 19.899179-13.599439 36.398499-27.298874 51.497876-11.499526 12.699476-26.298915 22.499072-44.298174 29.498784-11.099542 4.099831-23.99901 6.499732-37.898437 6.499732-14.79939 0-29.198796-2.599893-40.898313-7.199703-16.49932-6.399736-30.398746-15.799348-41.69828-27.298874-11.699518-12.199497-20.399159-26.798895-25.598945-43.798194-2.399901-7.699682-7.699682-27.298874-4.09983-47.198054 1.199951-6.699724 2.399901-12.699476 4.299822-18.89922 5.999753-18.699229 16.49932-32.998639 25.898932-45.498124 4.299823-5.699765 8.399654-11.199538 11.999505-16.999299 2.099913-3.599852 3.599852-6.999711 4.299823-10.099583 0.499979-2.89988 0.499979-5.499773-0.699971-7.899675-2.099913-4.999794-6.699724-10.299575-12.199497-14.799389l-0.199992-0.199992-0.199992-0.199992c-2.099913-1.69993-4.299823-4.099831-6.499732-6.499732h-60.097521c-4.799802 0-14.399406-1.399942-24.898973-10.499567-4.099831-3.599852-11.499526-11.199538-13.899427-21.09913-0.699971-3.099872-1.399942-7.699682-0.999959-31.798688 0.199992-11.999505 0.499979-22.999052 0.49998-23.499031v-18.099254z m18.499237 68.997155c1.899922 7.199703 12.699476 17.199291 20.399158 17.199291 7.699682 0 47.898025-0.199992 67.997196-0.199992 2.599893 2.399901 8.099666 8.599645 10.799555 10.799554 7.199703 5.699765 14.099419 13.399447 17.999257 22.299081 5.699765 13.199456 0.999959 26.098924-4.799802 35.39854-11.999505 19.099212-28.498825 34.698569-35.898519 58.1976-1.69993 5.299781-2.599893 10.799555-3.599852 16.499319-2.399901 13.199456 0.199992 28.198837 3.599852 38.298421 9.099625 28.998804 28.798812 48.398004 56.297678 59.497546 9.599604 3.799843 21.799101 5.699765 33.998598 5.699765 10.999546 0 21.999093-1.69993 31.098718-4.999794 14.79939-5.699765 27.298874-13.599439 37.09847-24.398993 10.799555-11.999505 18.399241-25.198961 22.999051-43.598202 0.999959-4.299823 0.999959-8.399654 1.69993-13.199456 0.999959-6.199744 0.499979-14.099419-0.699971-19.599192-1.199951-5.999753-2.099913-11.699518-4.299823-16.999299-8.099666-20.59915-22.499072-34.298586-31.398705-54.097769-4.299823-9.599604-7.899674-22.29908-3.39986-34.298585 2.099913-5.499773 4.999794-10.299575 8.399654-14.79939 2.89988-3.799843 6.699724-6.999711 9.599604-10.499567 1.69993-1.899922 5.699765-8.099666 7.699682-10.099583h67.297225c13.399447 0 22.29908-5.499773 22.29908-18.899221v-48.398004H655.994062c0 0.099996-1.299946 44.898148 0 50.19793z"  horiz-adv-x="1024" />

    
    <glyph glyph-name="jihuajiedianqueren" unicode="&#59252;" d="M222.6 339.5c-36.9 0-66.8-29.9-66.8-66.8s29.9-66.8 66.8-66.8 66.8 29.9 66.8 66.8-29.9 66.8-66.8 66.8z m0-89.1c-12.3 0-22.3 10-22.3 22.3s10 22.3 22.3 22.3 22.3-10 22.3-22.3-10-22.3-22.3-22.3zM222.6 584.3c-36.9 0-66.8-29.9-66.8-66.8s29.9-66.8 66.8-66.8 66.8 29.9 66.8 66.8-29.9 66.8-66.8 66.8z m0-89c-12.3 0-22.3 10-22.3 22.3s10 22.3 22.3 22.3 22.3-10 22.3-22.3-10-22.3-22.3-22.3zM464.7-103c0-13.7-11.2-25-25-25H324c-13.7 0-25 11.2-25 25 0 13.7 11.2 25 25 25h115.7c13.8 0 25-11.3 25-25zM849.2 821h-49.9c0 41.4-33.5 75-75 75s-75-33.5-75-75h-99.9c0 41.4-33.5 75-74.8 75s-75-33.5-75-75h-99.9c0 41.4-33.5 75-75 75s-75-33.5-75-75h-50C44.7 821 0 776.3 0 721.2v-749.3c0-55.2 44.8-99.9 99.9-99.9H499.2c13.6 0 24.8 11.2 24.8 24.8v0.4c0 13.6-11.2 24.8-24.8 24.8H222.5c-0.9 0-1.8-0.1-2.7-0.2H100c-27.6 0-49.9 22.3-49.9 49.9V721.2c0 27.6 22.3 49.9 49.9 49.9h49.9c0-41.4 33.5-75 75-75 41.4 0 75 33.5 75 75h99.9c0-41.4 33.5-75 75-75s75 33.5 75 75h99.9c0-41.4 33.5-75 75-75 41.4 0 75 33.5 75 75h49.9c27.6 0 49.9-22.3 49.9-49.9v-324.4c0-13.6 11.2-24.8 24.8-24.8s24.8 11.2 24.8 24.8V721.2C949 776.4 904.3 821 849.2 821z m-599.3-49.9c0-13.8-11.2-25-25-25s-25 11.2-25 25V821c0 13.8 11.2 25 25 25s25-11.2 25-25v-49.9z m249.8 0c0-13.8-11.2-25-25-25s-25 11.2-25 25V821c0 13.8 11.2 25 25 25s25-11.2 25-25v-49.9z m249.7 0c0-13.8-11.2-25-25-25s-25 11.2-25 25V821c0 13.8 11.2 25 25 25s25-11.2 25-25v-49.9zM474.7 339.5c-36.9 0-66.8-29.9-66.8-66.8s29.9-66.8 66.8-66.8 66.8 29.9 66.8 66.8-29.9 66.8-66.8 66.8z m0-89c-12.3 0-22.3 10-22.3 22.3s10 22.3 22.3 22.3 22.3-10 22.3-22.3-10-22.3-22.3-22.3zM474.7 584.3c-36.9 0-66.8-29.9-66.8-66.8s29.9-66.8 66.8-66.8 66.8 29.9 66.8 66.8-29.9 66.8-66.8 66.8z m0-89c-12.3 0-22.3 10-22.3 22.3s10 22.3 22.3 22.3 22.3-10 22.3-22.3-10-22.3-22.3-22.3zM724.4 584.3c-36.9 0-66.8-29.9-66.8-66.8s29.9-66.8 66.8-66.8 66.8 29.9 66.8 66.8-29.9 66.8-66.8 66.8z m0-89c-12.3 0-22.3 10-22.3 22.3s10 22.3 22.3 22.3 22.3-10 22.3-22.3-10-22.3-22.3-22.3zM796.5-100.5c-19.4 0-35.2 15.8-35.2 35.2s15.8 35.2 35.2 35.2h55c19.4 0 35.2-15.8 35.2-35.2 0-19.4-15.8-35.2-35.2-35.2h-55z m0 54.9c-10.9 0-19.7-8.9-19.7-19.7s8.9-19.7 19.7-19.7h55c10.9 0 19.7 8.9 19.7 19.7s-8.9 19.7-19.7 19.7h-55zM706.4-74.2h-4.8c-42.8 0-77.6 34.8-77.6 77.5 0 42.8 34.8 77.6 77.6 77.6h22.6v-17.8h-22.6c-16 0-31-6.2-42.3-17.5-11.3-11.3-17.5-26.3-17.5-42.3s6.2-30.9 17.5-42.3c11.3-11.3 26.3-17.5 42.3-17.5h4.8v20.6l29.5-29.5-29.5-29.5v20.7zM796.5 36.8c-19.4 0-35.2 15.8-35.2 35.2s15.8 35.2 35.2 35.2h55c19.4 0 35.2-15.8 35.2-35.2s-15.8-35.2-35.2-35.2h-55z m0 54.9c-10.9 0-19.7-8.9-19.7-19.7s8.9-19.7 19.7-19.7h55c10.9 0 19.7 8.9 19.7 19.7s-8.9 19.7-19.7 19.7h-55zM912 72l29.5 29.5v-20.6h4.8c15.9 0 30.9 6.2 42.3 17.5 11.3 11.3 17.5 26.3 17.5 42.3 0 16-6.2 31-17.5 42.3-11.3 11.3-26.3 17.5-42.3 17.5h-22.6v17.8h22.6c42.8 0 77.6-34.8 77.6-77.6S989.2 63 946.4 63h-4.8v-20.6L912 72zM796.5 174.1c-19.4 0-35.2 15.8-35.2 35.2s15.8 35.2 35.2 35.2h55c19.4 0 35.2-15.8 35.2-35.2s-15.8-35.2-35.2-35.2h-55z m0 55c-10.9 0-19.7-8.9-19.7-19.7s8.9-19.7 19.7-19.7h55c10.9 0 19.7 8.9 19.7 19.7s-8.9 19.7-19.7 19.7h-55z"  horiz-adv-x="1024" />

    
    <glyph glyph-name="jiedianjinduliebiaoshuzi" unicode="&#59253;" d="M441.7-57.7c-49.7 0-90.1 40.4-90.1 90.1 0 49.7 40.4 90.1 90.1 90.1h140.7c49.7 0 90.1-40.4 90.1-90.1 0-49.7-40.4-90.1-90.1-90.1H441.7z m0 140.7c-27.8 0-50.5-22.7-50.5-50.5s22.7-50.5 50.5-50.5h140.7c27.8 0 50.5 22.7 50.5 50.5S610.2 83 582.4 83H441.7zM211 9.7h-12.3C89.1 9.7 0 98.8 0 208.2c0 109.5 89.1 198.6 198.6 198.6h57.9v-45.6h-57.9c-40.9 0-79.3-15.9-108.2-44.7-28.8-28.9-44.7-67.4-44.7-108.2s15.9-79.2 44.7-108.2c28.9-28.8 67.4-44.7 108.2-44.7H211v52.8l75.6-75.6L211-43v52.7zM737.4 384l75.6 75.6v-52.8h12.4c40.8 0 79.2 15.9 108.2 44.7 28.8 28.9 44.7 67.4 44.7 108.2 0 40.9-15.9 79.3-44.7 108.2-28.9 28.8-67.4 44.7-108.2 44.7h-57.9v45.6h57.9c109.5 0 198.6-89.1 198.6-198.6S934.9 361 825.4 361H813v-52.8L737.4 384zM441.7 645.5c-49.7 0-90.1 40.4-90.1 90.1s40.4 90.1 90.1 90.1h140.7c49.7 0 90.1-40.4 90.1-90.1s-40.4-90.1-90.1-90.1H441.7z m0 140.6c-27.8 0-50.5-22.7-50.5-50.5s22.7-50.5 50.5-50.5h140.7c27.8 0 50.5 22.7 50.5 50.5s-22.7 50.5-50.5 50.5H441.7z"  horiz-adv-x="1024" />

    
    <glyph glyph-name="jihualiebiao" unicode="&#59254;" d="M222.6 339.5c-36.9 0-66.8-29.9-66.8-66.8s29.9-66.8 66.8-66.8 66.8 29.9 66.8 66.8-29.9 66.8-66.8 66.8z m0-89.1c-12.3 0-22.3 10-22.3 22.3s10 22.3 22.3 22.3 22.3-10 22.3-22.3-10-22.3-22.3-22.3zM222.6 584.3c-36.9 0-66.8-29.9-66.8-66.8s29.9-66.8 66.8-66.8 66.8 29.9 66.8 66.8-29.9 66.8-66.8 66.8z m0-89c-12.3 0-22.3 10-22.3 22.3s10 22.3 22.3 22.3 22.3-10 22.3-22.3-10-22.3-22.3-22.3zM464.7-103c0-13.7-11.2-25-25-25H324c-13.7 0-25 11.2-25 25 0 13.7 11.2 25 25 25h115.7c13.8 0 25-11.3 25-25zM849.2 821h-49.9c0 41.4-33.5 75-75 75s-75-33.5-75-75h-99.9c0 41.4-33.5 75-74.8 75s-75-33.5-75-75h-99.9c0 41.4-33.5 75-75 75s-75-33.5-75-75h-50C44.7 821 0 776.3 0 721.2v-749.3c0-55.2 44.8-99.9 99.9-99.9H499.2c13.6 0 24.8 11.2 24.8 24.8v0.4c0 13.6-11.2 24.8-24.8 24.8H222.5c-0.9 0-1.8-0.1-2.7-0.2H100c-27.6 0-49.9 22.3-49.9 49.9V721.2c0 27.6 22.3 49.9 49.9 49.9h49.9c0-41.4 33.5-75 75-75 41.4 0 75 33.5 75 75h99.9c0-41.4 33.5-75 75-75s75 33.5 75 75h99.9c0-41.4 33.5-75 75-75 41.4 0 75 33.5 75 75h49.9c27.6 0 49.9-22.3 49.9-49.9v-324.4c0-13.6 11.2-24.8 24.8-24.8s24.8 11.2 24.8 24.8V721.2C949 776.4 904.3 821 849.2 821z m-599.3-49.9c0-13.8-11.2-25-25-25s-25 11.2-25 25V821c0 13.8 11.2 25 25 25s25-11.2 25-25v-49.9z m249.8 0c0-13.8-11.2-25-25-25s-25 11.2-25 25V821c0 13.8 11.2 25 25 25s25-11.2 25-25v-49.9z m249.7 0c0-13.8-11.2-25-25-25s-25 11.2-25 25V821c0 13.8 11.2 25 25 25s25-11.2 25-25v-49.9zM474.7 339.5c-36.9 0-66.8-29.9-66.8-66.8s29.9-66.8 66.8-66.8 66.8 29.9 66.8 66.8-29.9 66.8-66.8 66.8z m0-89c-12.3 0-22.3 10-22.3 22.3s10 22.3 22.3 22.3 22.3-10 22.3-22.3-10-22.3-22.3-22.3zM474.7 584.3c-36.9 0-66.8-29.9-66.8-66.8s29.9-66.8 66.8-66.8 66.8 29.9 66.8 66.8-29.9 66.8-66.8 66.8z m0-89c-12.3 0-22.3 10-22.3 22.3s10 22.3 22.3 22.3 22.3-10 22.3-22.3-10-22.3-22.3-22.3zM724.4 584.3c-36.9 0-66.8-29.9-66.8-66.8s29.9-66.8 66.8-66.8 66.8 29.9 66.8 66.8-29.9 66.8-66.8 66.8z m0-89c-12.3 0-22.3 10-22.3 22.3s10 22.3 22.3 22.3 22.3-10 22.3-22.3-10-22.3-22.3-22.3zM647.5 177.9m-23.5 0a23.5 23.5 0 1 1 47 0 23.5 23.5 0 1 1-47 0ZM1011.6 165.5H765.2c-6.8 0-12.4 5.5-12.4 12.4 0 6.8 5.5 12.4 12.4 12.4h246.5c6.8 0 12.4-5.5 12.4-12.4-0.1-6.8-5.6-12.4-12.5-12.4zM647.5 72m-23.5 0a23.5 23.5 0 1 1 47 0 23.5 23.5 0 1 1-47 0ZM1011.6 59.6H765.2c-6.8 0-12.4 5.5-12.4 12.4 0 6.8 5.5 12.4 12.4 12.4h246.5c6.8 0 12.4-5.5 12.4-12.4-0.1-6.8-5.6-12.4-12.5-12.4zM647.5-33.9m-23.5 0a23.5 23.5 0 1 1 47 0 23.5 23.5 0 1 1-47 0ZM1011.6-46.2H765.2c-6.8 0-12.4 5.5-12.4 12.4 0 6.8 5.5 12.4 12.4 12.4h246.5c6.8 0 12.4-5.5 12.4-12.4-0.1-6.9-5.6-12.4-12.5-12.4z"  horiz-adv-x="1024" />

    
    </font>
</defs>
</svg>
